JosefinSlab-Thin-TTF.ufo
<glyph name="quotedbl" format="1">
  <advance width="293"/>
  <unicode hex="0022"/>
  <outline>
    <contour>
      <point x="196" y="472" type="line" name="sv02"/>
      <point x="196" y="720" type="line" name="sh01"/>
      <point x="214" y="720" type="line" name="sh02"/>
      <point x="213" y="657"/>
      <point x="211" y="535"/>
      <point x="210" y="472" type="qcurve"/>
    </contour>
    <contour>
      <point x="63" y="472" type="line" name="sv01"/>
      <point x="63" y="720" type="line" name="ah01"/>
      <point x="81" y="720" type="line" name="sh03"/>
      <point x="80" y="657"/>
      <point x="78" y="535"/>
      <point x="77" y="472" type="qcurve"/>
    </contour>
  </outline>
</glyph>
<glyph name="dollar" format="1">
  <advance width="567"/>
  <unicode hex="0024"/>
  <outline>
    <contour>
      <point x="372" y="546" type="line" name="sh01"/>
      <point x="372" y="653" type="line"/>
      <point x="353" y="667"/>
      <point x="290" y="688"/>
      <point x="245" y="690" type="qcurve" name="sv01"/>
      <point x="245" y="380" type="line" name="sh03"/>
      <point x="281" y="369"/>
      <point x="354" y="345" name="fv01"/>
      <point x="383.0" y="324.5" type="qcurve" smooth="yes" name="inserted"/>
      <point x="412" y="304" name="fh01"/>
      <point x="449" y="238"/>
      <point x="450" y="186" type="qcurve" name="dh02"/>
      <point x="451" y="142"/>
      <point x="419" y="72" name="fh02"/>
      <point x="391.0" y="46.5" type="qcurve" smooth="yes" name="inserted"/>
      <point x="363" y="21"/>
      <point x="288" y="-7"/>
      <point x="245" y="-8" type="qcurve" name="sh04"/>
      <point x="245" y="-68" type="line"/>
      <point x="232" y="-68" type="line" name="sv02"/>
      <point x="232" y="-8" type="line" name="sh05"/>
      <point x="193" y="-7"/>
      <point x="132" y="9"/>
      <point x="109.0" y="20.0" type="qcurve" smooth="yes" name="inserted"/>
      <point x="86" y="31"/>
      <point x="55" y="55"/>
      <point x="46" y="64" type="qcurve"/>
      <point x="46" y="164" type="line" name="sh06"/>
      <point x="60" y="164" type="line" name="sh07"/>
      <point x="60" y="74" type="line"/>
      <point x="88" y="45"/>
      <point x="172" y="7"/>
      <point x="232" y="6" type="qcurve" name="sv03"/>
      <point x="232" y="367" type="line" name="ih02"/>
      <point x="201" y="376"/>
      <point x="143" y="397"/>
      <point x="120.0" y="413.5" type="qcurve" smooth="yes" name="inserted"/>
      <point x="97" y="430"/>
      <point x="68" y="479"/>
      <point x="66" y="517" type="qcurve" name="dh01"/>
      <point x="64" y="550"/>
      <point x="82" y="615"/>
      <point x="102.0" y="642.0" type="qcurve" smooth="yes" name="inserted"/>
      <point x="122" y="669" name="fh03"/>
      <point x="187" y="703"/>
      <point x="232" y="704" type="qcurve" name="sh09"/>
      <point x="232" y="764" type="line"/>
      <point x="245" y="764" type="line" name="sv04"/>
      <point x="245" y="704" type="line" name="sh10"/>
      <point x="277" y="703"/>
      <point x="356" y="686"/>
      <point x="386" y="660" type="qcurve"/>
      <point x="386" y="546" type="line" name="ih01"/>
    </contour>
    <contour>
      <point x="436" y="182" type="qcurve" name="sh11"/>
      <point x="436" y="230"/>
      <point x="403" y="292" name="fh04"/>
      <point x="376.0" y="311.5" type="qcurve" smooth="yes" name="inserted"/>
      <point x="349" y="331"/>
      <point x="280" y="353"/>
      <point x="245" y="363" type="qcurve" name="sh02"/>
      <point x="245" y="6" type="line" name="sv05"/>
      <point x="282" y="7"/>
      <point x="351" y="34"/>
      <point x="377.5" y="56.5" type="qcurve" smooth="yes" name="inserted"/>
      <point x="404" y="79"/>
      <point x="436" y="143"/>
    </contour>
    <contour>
      <point x="80" y="530" type="qcurve" name="sh12"/>
      <point x="80" y="494"/>
      <point x="105" y="446"/>
      <point x="126.0" y="429.5" type="qcurve" smooth="yes" name="inserted"/>
      <point x="147" y="413"/>
      <point x="202" y="392"/>
      <point x="232" y="383" type="qcurve" name="sh08"/>
      <point x="232" y="690" type="line" name="sv06"/>
      <point x="194" y="689"/>
      <point x="137" y="662" name="fh05"/>
      <point x="118.0" y="639.5" type="qcurve" smooth="yes" name="inserted"/>
      <point x="99" y="617"/>
      <point x="80" y="560"/>
    </contour>
  </outline>
</glyph>
<glyph name="percent" format="1">
  <advance width="726"/>
  <unicode hex="0025"/>
  <outline>
    <contour>
      <point x="426" y="112" type="qcurve" name="sh01"/>
      <point x="426" y="92"/>
      <point x="441" y="58"/>
      <point x="454.0" y="45.5" type="qcurve" smooth="yes" name="inserted"/>
      <point x="467" y="33"/>
      <point x="502" y="18"/>
      <point x="522" y="18" type="qcurve" name="sv01"/>
      <point x="542" y="18"/>
      <point x="577" y="33"/>
      <point x="590.0" y="45.5" type="qcurve" smooth="yes" name="inserted"/>
      <point x="603" y="58"/>
      <point x="618" y="92"/>
      <point x="618" y="112" type="qcurve" name="sh03"/>
      <point x="618" y="131"/>
      <point x="603" y="166"/>
      <point x="590.0" y="179.0" type="qcurve" smooth="yes" name="inserted"/>
      <point x="577" y="192"/>
      <point x="542" y="207"/>
      <point x="522" y="207" type="qcurve" name="sv03"/>
      <point x="502" y="207"/>
      <point x="467" y="192"/>
      <point x="454.0" y="179.0" type="qcurve" smooth="yes" name="inserted"/>
      <point x="441" y="166"/>
      <point x="426" y="131"/>
    </contour>
    <contour>
      <point x="522" y="4" type="qcurve" name="av02"/>
      <point x="499" y="4"/>
      <point x="459" y="21"/>
      <point x="444.0" y="35.5" type="qcurve" smooth="yes" name="inserted"/>
      <point x="429" y="50"/>
      <point x="412" y="90"/>
      <point x="412" y="113" type="qcurve" name="ah02"/>
      <point x="412" y="135"/>
      <point x="429" y="175"/>
      <point x="444.0" y="189.5" type="qcurve" smooth="yes" name="inserted"/>
      <point x="459" y="204"/>
      <point x="499" y="221"/>
      <point x="522" y="221" type="qcurve" name="sv02"/>
      <point x="544" y="221"/>
      <point x="584" y="204"/>
      <point x="599.0" y="189.5" type="qcurve" smooth="yes" name="inserted"/>
      <point x="614" y="175"/>
      <point x="632" y="135"/>
      <point x="632" y="113" type="qcurve" name="sh02"/>
      <point x="632" y="90"/>
      <point x="614" y="50"/>
      <point x="599.0" y="35.5" type="qcurve" smooth="yes" name="inserted"/>
      <point x="584" y="21"/>
      <point x="544" y="4"/>
    </contour>
    <contour>
      <point x="122" y="388" type="qcurve" name="sh04"/>
      <point x="122" y="368"/>
      <point x="137" y="334"/>
      <point x="150.0" y="321.5" type="qcurve" smooth="yes" name="inserted"/>
      <point x="163" y="309"/>
      <point x="198" y="294"/>
      <point x="218" y="294" type="qcurve" name="sv05"/>
      <point x="238" y="294"/>
      <point x="273" y="309"/>
      <point x="286.0" y="321.5" type="qcurve" smooth="yes" name="inserted"/>
      <point x="299" y="334"/>
      <point x="314" y="368"/>
      <point x="314" y="388" type="qcurve" name="sh06"/>
      <point x="314" y="407"/>
      <point x="299" y="442"/>
      <point x="286.0" y="455.0" type="qcurve" smooth="yes" name="inserted"/>
      <point x="273" y="468"/>
      <point x="238" y="483"/>
      <point x="218" y="483" type="qcurve" name="sv06"/>
      <point x="198" y="483"/>
      <point x="163" y="468"/>
      <point x="150.0" y="455.0" type="qcurve" smooth="yes" name="inserted"/>
      <point x="137" y="442"/>
      <point x="122" y="407"/>
    </contour>
    <contour>
      <point x="218" y="280" type="qcurve" name="sv04"/>
      <point x="195" y="280"/>
      <point x="155" y="297"/>
      <point x="140.0" y="311.5" type="qcurve" smooth="yes" name="inserted"/>
      <point x="125" y="326"/>
      <point x="108" y="366"/>
      <point x="108" y="389" type="qcurve" name="ah01"/>
      <point x="108" y="411"/>
      <point x="125" y="451"/>
      <point x="140.0" y="465.5" type="qcurve" smooth="yes" name="inserted"/>
      <point x="155" y="480"/>
      <point x="195" y="497"/>
      <point x="218" y="497" type="qcurve" name="av01"/>
      <point x="240" y="497"/>
      <point x="280" y="480"/>
      <point x="295.0" y="465.5" type="qcurve" smooth="yes" name="inserted"/>
      <point x="310" y="451"/>
      <point x="328" y="411"/>
      <point x="328" y="389" type="qcurve" name="sh05"/>
      <point x="328" y="366"/>
      <point x="310" y="326"/>
      <point x="295.0" y="311.5" type="qcurve" smooth="yes" name="inserted"/>
      <point x="280" y="297"/>
      <point x="240" y="280"/>
    </contour>
    <contour>
      <point x="208" y="0" type="line" name="ih01"/>
      <point x="283" y="126"/>
      <point x="431" y="374"/>
      <point x="506" y="500" type="qcurve" name="sh07"/>
      <point x="522" y="500" type="line" name="ih02"/>
      <point x="447" y="374"/>
      <point x="299" y="126"/>
      <point x="224" y="0" type="qcurve" name="sh08"/>
    </contour>
  </outline>
</glyph>
<glyph name="ampersand" format="1">
  <advance width="700"/>
  <unicode hex="0026"/>
  <outline>
    <contour>
      <point x="481" y="375" type="line" name="sh01"/>
      <point x="601" y="375" type="line"/>
      <point x="601" y="361" type="line"/>
      <point x="495" y="361" type="line" name="dh02"/>
      <point x="495" y="274" type="line"/>
      <point x="495" y="249"/>
      <point x="496" y="200"/>
      <point x="493.5" y="176.0" type="qcurve" smooth="yes" name="inserted"/>
      <point x="491" y="152"/>
      <point x="479" y="106"/>
      <point x="466" y="84" type="qcurve" name="ih02"/>
      <point x="525" y="-11" type="line" name="sh03"/>
      <point x="514" y="-19" type="line" name="sh04"/>
      <point x="457" y="72" type="line" name="ih04"/>
      <point x="431" y="36"/>
      <point x="349" y="-7"/>
      <point x="300" y="-7" type="qcurve" name="ab01"/>
      <point x="259" y="-7"/>
      <point x="189" y="23"/>
      <point x="162.5" y="49.5" type="qcurve" smooth="yes" name="inserted"/>
      <point x="136" y="76"/>
      <point x="106" y="146"/>
      <point x="106" y="187" type="qcurve" name="dh01"/>
      <point x="106" y="223"/>
      <point x="131" y="288"/>
      <point x="152.5" y="313.5" type="qcurve" smooth="yes" name="inserted"/>
      <point x="174" y="339" name="fh01"/>
      <point x="234" y="373"/>
      <point x="269" y="379" type="qcurve" name="ih05"/>
      <point x="197" y="496" type="line"/>
      <point x="179" y="526"/>
      <point x="164" y="590" name="ih01"/>
      <point x="169.0" y="621.0" type="qcurve" smooth="yes" name="inserted"/>
      <point x="174" y="652" name="fh02"/>
      <point x="210" y="706" name="fh03"/>
      <point x="243" y="726" type="qcurve"/>
      <point x="271" y="743"/>
      <point x="330" y="750" name="at01"/>
      <point x="358.0" y="745.0" type="qcurve" smooth="yes" name="inserted"/>
      <point x="386" y="740"/>
      <point x="435" y="718"/>
      <point x="454" y="706" type="qcurve" name="ih06"/>
      <point x="448" y="693" type="line" name="sv02"/>
      <point x="425" y="706"/>
      <point x="377" y="728"/>
      <point x="352.0" y="733.0" type="qcurve" smooth="yes" name="inserted"/>
      <point x="327" y="738" name="sv03"/>
      <point x="276" y="731"/>
      <point x="251" y="715" type="qcurve"/>
      <point x="220" y="695" name="fh04"/>
      <point x="186" y="645"/>
      <point x="181.5" y="617.5" type="qcurve" smooth="yes" name="inserted"/>
      <point x="177" y="590" name="sh02"/>
      <point x="191" y="531"/>
      <point x="208" y="504" type="qcurve"/>
      <point x="457" y="98" type="line" name="ih07"/>
      <point x="468" y="118"/>
      <point x="481" y="162"/>
      <point x="481" y="187" type="qcurve"/>
    </contour>
    <contour>
      <point x="120" y="187" type="qcurve" name="sh05"/>
      <point x="120" y="149"/>
      <point x="148" y="84"/>
      <point x="172.5" y="59.5" type="qcurve" smooth="yes" name="inserted"/>
      <point x="197" y="35"/>
      <point x="262" y="7"/>
      <point x="300" y="7" type="qcurve" name="sv01"/>
      <point x="347" y="7"/>
      <point x="425" y="50"/>
      <point x="449" y="85" type="qcurve" name="ih03"/>
      <point x="277" y="366" type="line" name="ih08"/>
      <point x="244" y="362"/>
      <point x="186" y="331" name="fh05"/>
      <point x="165.0" y="307.0" type="qcurve" smooth="yes" name="inserted"/>
      <point x="144" y="283" name="fh06"/>
      <point x="120" y="221"/>
    </contour>
  </outline>
</glyph>
<glyph name="quotesingle" format="1">
  <advance width="147"/>
  <unicode hex="0027"/>
  <outline>
    <contour>
      <point x="67" y="472" type="line" name="sv01"/>
      <point x="67" y="720" type="line" name="ah01"/>
      <point x="85" y="720" type="line" name="sh01"/>
      <point x="84" y="657"/>
      <point x="82" y="535"/>
      <point x="81" y="472" type="qcurve"/>
    </contour>
  </outline>
</glyph>
<glyph name="parenright" format="1">
  <advance width="400"/>
  <unicode hex="0029"/>
  <outline>
    <contour>
      <point x="279" y="292" type="qcurve" name="ah01"/>
      <point x="279" y="217"/>
      <point x="251" y="81" name="fh01"/>
      <point x="228.0" y="23.0" type="qcurve" smooth="yes" name="inserted"/>
      <point x="205" y="-35" name="fh02"/>
      <point x="145" y="-130"/>
      <point x="114" y="-163" type="qcurve" name="sh02"/>
      <point x="113" y="-157"/>
      <point x="112" y="-146"/>
      <point x="111" y="-140" type="qcurve" name="sv01"/>
      <point x="140" y="-107"/>
      <point x="195" y="-17"/>
      <point x="217.0" y="38.0" type="qcurve" smooth="yes" name="inserted"/>
      <point x="239" y="93"/>
      <point x="265" y="221"/>
      <point x="265" y="292" type="qcurve" name="sh03"/>
      <point x="265" y="363"/>
      <point x="239" y="491"/>
      <point x="217.0" y="546.0" type="qcurve" smooth="yes" name="inserted"/>
      <point x="195" y="601"/>
      <point x="140" y="691"/>
      <point x="111" y="724" type="qcurve" name="sv02"/>
      <point x="112" y="730"/>
      <point x="113" y="741"/>
      <point x="114" y="747" type="qcurve" name="sh01"/>
      <point x="145" y="714"/>
      <point x="205" y="619" name="fh03"/>
      <point x="228.0" y="561.0" type="qcurve" smooth="yes" name="inserted"/>
      <point x="251" y="503" name="fh04"/>
      <point x="279" y="367"/>
    </contour>
  </outline>
</glyph>
<glyph name="asterisk" format="1">
  <advance width="335"/>
  <unicode hex="002A"/>
  <outline>
    <contour>
      <point x="182" y="575" type="qcurve" name="sh02"/>
      <point x="210" y="559"/>
      <point x="266" y="527"/>
      <point x="294" y="511" type="qcurve" name="sh03"/>
      <point x="285" y="496" type="line" name="sv02"/>
      <point x="174" y="562" type="line" name="sh04"/>
      <point x="173" y="530"/>
      <point x="173" y="466"/>
      <point x="172" y="434" type="qcurve"/>
      <point x="158" y="434" type="line" name="sv01"/>
      <point x="158" y="561" type="line" name="sh05"/>
      <point x="130" y="545"/>
      <point x="76" y="514"/>
      <point x="48" y="498" type="qcurve" name="iv01"/>
      <point x="39" y="513" type="line" name="sh06"/>
      <point x="150" y="576" type="line" name="sh07"/>
      <point x="39" y="642" type="line" name="sh08"/>
      <point x="41" y="645"/>
      <point x="44" y="651"/>
      <point x="46" y="654" type="qcurve" name="iv02"/>
      <point x="74" y="637"/>
      <point x="130" y="606"/>
      <point x="158" y="589" type="qcurve"/>
      <point x="158" y="720" type="line" name="ah01"/>
      <point x="176" y="720" type="line" name="sh01"/>
      <point x="175" y="687"/>
      <point x="175" y="622"/>
      <point x="174" y="589" type="qcurve"/>
      <point x="203" y="605"/>
      <point x="259" y="637"/>
      <point x="288" y="653" type="qcurve" name="sv03"/>
      <point x="290" y="650"/>
      <point x="293" y="644"/>
      <point x="295" y="641" type="qcurve" name="sh09"/>
      <point x="266" y="624"/>
      <point x="211" y="592"/>
    </contour>
  </outline>
</glyph>
<glyph name="plus" format="1">
  <advance width="543"/>
  <unicode hex="002B"/>
  <outline>
    <contour>
      <point x="259" y="51" type="line" name="sv01"/>
      <point x="259" y="225" type="line" name="ah01"/>
      <point x="86" y="225" type="line" name="sh01"/>
      <point x="86" y="239" type="line"/>
      <point x="259" y="239" type="line" name="sh02"/>
      <point x="259" y="411" type="line" name="sv02"/>
      <point x="273" y="411" type="line"/>
      <point x="273" y="239" type="line" name="sh04"/>
      <point x="446" y="239" type="line"/>
      <point x="446" y="225" type="line" name="sh05"/>
      <point x="273" y="225" type="line" name="sh03"/>
      <point x="273" y="51" type="line"/>
    </contour>
  </outline>
</glyph>
<glyph name="comma" format="1">
  <advance width="200"/>
  <unicode hex="002C"/>
  <outline>
    <contour>
      <point x="127" y="86" type="line" name="sh01"/>
      <point x="105" y="34"/>
      <point x="63" y="-68"/>
      <point x="41" y="-120" type="qcurve" name="sh02"/>
      <point x="27" y="-120" type="line" name="ah01"/>
      <point x="47" y="-68"/>
      <point x="84" y="34"/>
      <point x="104" y="86" type="qcurve" name="sh03"/>
    </contour>
  </outline>
</glyph>
<glyph name="slash" format="1">
  <advance width="322"/>
  <unicode hex="002F"/>
  <outline>
    <contour>
      <point x="17" y="-19" type="line" name="ah01"/>
      <point x="87" y="171"/>
      <point x="225" y="546"/>
      <point x="295" y="736" type="qcurve" name="sh02"/>
      <point x="309" y="736" type="line" name="sh01"/>
      <point x="239" y="546"/>
      <point x="101" y="171"/>
      <point x="31" y="-19" type="qcurve" name="sh03"/>
    </contour>
  </outline>
</glyph>
<glyph name="one" format="1">
  <advance width="249"/>
  <unicode hex="0031"/>
  <outline>
    <contour>
      <point x="67" y="14" type="line" name="sh01"/>
      <point x="147" y="14" type="line" name="ah01"/>
      <point x="147" y="636" type="line"/>
      <point x="34" y="636" type="line" name="sh02"/>
      <point x="34" y="650" type="line" name="at01"/>
      <point x="161" y="650" type="line"/>
      <point x="161" y="14" type="line" name="sh03"/>
      <point x="241" y="14" type="line" name="sh04"/>
      <point x="241" y="0" type="line"/>
      <point x="67" y="0" type="line" name="ab01"/>
    </contour>
  </outline>
</glyph>
<glyph name="two" format="1">
  <advance width="495"/>
  <unicode hex="0032"/>
  <outline>
    <contour>
      <point x="89" y="14" type="qcurve" name="sh02"/>
      <point x="435" y="14" type="line" name="sv01"/>
      <point x="435" y="127" type="line" name="sh04"/>
      <point x="449" y="127" type="line" name="sh03"/>
      <point x="449" y="0" type="line" name="ab01"/>
      <point x="53" y="0" type="line" name="sh01"/>
      <point x="117" y="62"/>
      <point x="239" y="183" name="iv01"/>
      <point x="285.5" y="240.5" type="qcurve" smooth="yes" name="inserted"/>
      <point x="332" y="298"/>
      <point x="389" y="405"/>
      <point x="389" y="452" type="qcurve" name="sh05"/>
      <point x="389" y="508"/>
      <point x="357" y="582" name="fh01"/>
      <point x="333.0" y="604.0" type="qcurve" smooth="yes" name="inserted"/>
      <point x="309" y="626"/>
      <point x="253" y="644"/>
      <point x="228" y="644" type="qcurve" name="sv02"/>
      <point x="178" y="644"/>
      <point x="115" y="609" name="fh02"/>
      <point x="96.5" y="582.5" type="qcurve" smooth="yes" name="inserted"/>
      <point x="78" y="556"/>
      <point x="64" y="495"/>
      <point x="64" y="469" type="qcurve" name="sh06"/>
      <point x="64.0" y="433.5" name="inserted"/>
      <point x="84.0" y="376.5"/>
      <point x="104" y="355" type="qcurve" name="sh07"/>
      <point x="95" y="347" type="line" name="sv03"/>
      <point x="74" y="371"/>
      <point x="50" y="428"/>
      <point x="50" y="469" type="qcurve" name="dh01"/>
      <point x="50" y="509"/>
      <point x="73" y="578" name="fv01"/>
      <point x="95.5" y="603.5" type="qcurve" smooth="yes" name="inserted"/>
      <point x="118" y="629" name="fh03"/>
      <point x="185" y="658"/>
      <point x="228" y="658" type="qcurve" name="at01"/>
      <point x="267" y="658"/>
      <point x="331" y="629" name="fh04"/>
      <point x="354.5" y="603.0" type="qcurve" smooth="yes" name="inserted"/>
      <point x="378" y="577" name="fh05"/>
      <point x="403" y="506"/>
      <point x="403" y="464" type="qcurve" name="dh02"/>
      <point x="403" y="406"/>
      <point x="344" y="291"/>
      <point x="298.0" y="235.0" type="qcurve" smooth="yes" name="inserted"/>
      <point x="252" y="179" name="sv04"/>
      <point x="141" y="68"/>
    </contour>
  </outline>
</glyph>
<glyph name="three" format="1">
  <advance width="515"/>
  <unicode hex="0033"/>
  <outline>
    <contour>
      <point x="178" y="361" type="qcurve" name="ih01"/>
      <point x="390" y="636" type="line" name="sh01"/>
      <point x="117" y="636" type="line" name="sv02"/>
      <point x="117" y="568" type="line" name="sh02"/>
      <point x="103" y="568" type="line" name="ih03"/>
      <point x="103" y="650" type="line" name="at01"/>
      <point x="422" y="650" type="line" name="ih02"/>
      <point x="223" y="398" type="line" name="sh03"/>
      <point x="268" y="400"/>
      <point x="349" y="371" name="fh01"/>
      <point x="379.5" y="344.0" type="qcurve" smooth="yes" name="inserted"/>
      <point x="410" y="317" name="fh02"/>
      <point x="446" y="240"/>
      <point x="446" y="195" type="qcurve" name="dh02"/>
      <point x="446" y="153"/>
      <point x="414" y="79" name="fh03"/>
      <point x="386.0" y="51.5" type="qcurve" smooth="yes" name="inserted"/>
      <point x="358" y="24"/>
      <point x="284" y="-8"/>
      <point x="242" y="-8" type="qcurve" name="ab01"/>
      <point x="197" y="-8"/>
      <point x="121" y="28"/>
      <point x="93" y="58" type="qcurve" name="dh01"/>
      <point x="103" y="71" type="line" name="sh04"/>
      <point x="127" y="42"/>
      <point x="197" y="6"/>
      <point x="239" y="6" type="qcurve" name="sv03"/>
      <point x="278" y="6"/>
      <point x="349" y="36"/>
      <point x="375.0" y="62.0" type="qcurve" smooth="yes" name="inserted"/>
      <point x="401" y="88"/>
      <point x="432" y="157"/>
      <point x="432" y="195" type="qcurve" name="sh05"/>
      <point x="432" y="234"/>
      <point x="401" y="303"/>
      <point x="375.0" y="328.5" type="qcurve" smooth="yes" name="inserted"/>
      <point x="349" y="354"/>
      <point x="278" y="384"/>
      <point x="239" y="384" type="qcurve" name="sv01"/>
      <point x="223" y="384"/>
      <point x="192" y="372"/>
    </contour>
  </outline>
</glyph>
<glyph name="four" format="1">
  <advance width="505"/>
  <unicode hex="0034"/>
  <outline>
    <contour>
      <point x="312" y="14" type="line" name="sh02"/>
      <point x="389" y="14" type="line"/>
      <point x="389" y="183" type="line" name="sh01"/>
      <point x="37" y="183" type="line" name="dh01"/>
      <point x="403" y="658" type="line" name="at01"/>
      <point x="403" y="197" type="line" name="sh03"/>
      <point x="500" y="197" type="line"/>
      <point x="500" y="183" type="line"/>
      <point x="403" y="183" type="line" name="dh02"/>
      <point x="403" y="14" type="line" name="sv01"/>
      <point x="486" y="14" type="line" name="sh04"/>
      <point x="486" y="0" type="line"/>
      <point x="312" y="0" type="line" name="ab01"/>
    </contour>
    <contour>
      <point x="389" y="617" type="line" name="sv02"/>
      <point x="67" y="197" type="line" name="sh05"/>
      <point x="389" y="197" type="line" name="sh06"/>
    </contour>
  </outline>
</glyph>
<glyph name="five" format="1">
  <advance width="543"/>
  <unicode hex="0035"/>
  <outline>
    <contour>
      <point x="430" y="650" type="line"/>
      <point x="430" y="568" type="line" name="ih01"/>
      <point x="416" y="568" type="line" name="sh01"/>
      <point x="416" y="636" type="line"/>
      <point x="157" y="636" type="line" name="sh02"/>
      <point x="157" y="372" type="line"/>
      <point x="180" y="383"/>
      <point x="229" y="395"/>
      <point x="255" y="395" type="qcurve" name="iv01"/>
      <point x="297" y="395"/>
      <point x="372" y="364"/>
      <point x="399.5" y="337.0" type="qcurve" smooth="yes" name="inserted"/>
      <point x="427" y="310" name="fh01"/>
      <point x="460" y="237"/>
      <point x="460" y="195" type="qcurve" name="dh02"/>
      <point x="460" y="153"/>
      <point x="427" y="79"/>
      <point x="399.5" y="51.5" type="qcurve" smooth="yes" name="inserted"/>
      <point x="372" y="24"/>
      <point x="297" y="-8"/>
      <point x="255" y="-8" type="qcurve" name="ab01"/>
      <point x="214" y="-8"/>
      <point x="143" y="22"/>
      <point x="115" y="48" type="qcurve" name="dh01"/>
      <point x="126" y="58" type="line" name="sh03"/>
      <point x="150" y="33"/>
      <point x="215" y="6"/>
      <point x="253" y="6" type="qcurve" name="sv01"/>
      <point x="293" y="6"/>
      <point x="363" y="36"/>
      <point x="389.0" y="62.0" type="qcurve" smooth="yes" name="inserted"/>
      <point x="415" y="88"/>
      <point x="446" y="157"/>
      <point x="446" y="195" type="qcurve" name="sh04"/>
      <point x="446" y="234"/>
      <point x="415" y="301"/>
      <point x="389.0" y="326.5" type="qcurve" smooth="yes" name="inserted"/>
      <point x="363" y="352"/>
      <point x="293" y="381"/>
      <point x="253" y="381" type="qcurve" name="sv02"/>
      <point x="218" y="381"/>
      <point x="160" y="358" name="fh02"/>
      <point x="143" y="341" type="qcurve" name="sv03"/>
      <point x="143" y="650" type="line" name="ih02"/>
    </contour>
  </outline>
</glyph>
<glyph name="nine" format="1">
  <advance width="525"/>
  <unicode hex="0039"/>
  <outline>
    <contour>
      <point x="450" y="432" type="qcurve" name="sh01"/>
      <point x="450" y="471"/>
      <point x="420" y="539"/>
      <point x="394.5" y="564.5" type="qcurve" smooth="yes" name="inserted"/>
      <point x="369" y="590"/>
      <point x="299" y="619"/>
      <point x="260" y="619" type="qcurve" name="sv03"/>
      <point x="221" y="619"/>
      <point x="151" y="590"/>
      <point x="125.0" y="564.5" type="qcurve" smooth="yes" name="inserted"/>
      <point x="99" y="539" name="fh01"/>
      <point x="69" y="471"/>
      <point x="69" y="432" type="qcurve" name="sh02"/>
      <point x="69" y="393"/>
      <point x="99" y="324"/>
      <point x="125.0" y="298.5" type="qcurve" smooth="yes" name="inserted"/>
      <point x="151" y="273" name="fh02"/>
      <point x="221" y="244"/>
      <point x="260" y="244" type="qcurve" name="sv04"/>
      <point x="299" y="244"/>
      <point x="369" y="273"/>
      <point x="394.5" y="298.5" type="qcurve" smooth="yes" name="inserted"/>
      <point x="420" y="324"/>
      <point x="450" y="393"/>
    </contour>
    <contour>
      <point x="463" y="432" type="qcurve" name="dh02"/>
      <point x="463" y="359"/>
      <point x="401" y="234" name="fh03"/>
      <point x="353.0" y="180.0" type="qcurve" smooth="yes" name="inserted"/>
      <point x="305" y="126"/>
      <point x="187" y="33"/>
      <point x="131" y="-8" type="qcurve" name="sh03"/>
      <point x="129" y="-5"/>
      <point x="123" y="2"/>
      <point x="121" y="5" type="qcurve" name="ih01"/>
      <point x="188" y="49"/>
      <point x="290" y="135"/>
      <point x="326.5" y="174.5" type="qcurve" smooth="yes" name="inserted"/>
      <point x="363" y="214" name="fh04"/>
      <point x="410" y="283"/>
      <point x="422" y="311" type="qcurve" name="sh04"/>
      <point x="394" y="274"/>
      <point x="310" y="230"/>
      <point x="259" y="230" type="qcurve" name="sv01"/>
      <point x="217" y="230"/>
      <point x="142" y="262"/>
      <point x="114.5" y="289.5" type="qcurve" smooth="yes" name="inserted"/>
      <point x="87" y="317" name="fh05"/>
      <point x="55" y="390"/>
      <point x="55" y="432" type="qcurve" name="dh01"/>
      <point x="55" y="474"/>
      <point x="87" y="547"/>
      <point x="114.5" y="574.0" type="qcurve" smooth="yes" name="inserted"/>
      <point x="142" y="601" name="fh06"/>
      <point x="217" y="633"/>
      <point x="259" y="633" type="qcurve" name="sv02"/>
      <point x="301" y="633"/>
      <point x="376" y="601" name="fh07"/>
      <point x="403.5" y="574.0" type="qcurve" smooth="yes" name="inserted"/>
      <point x="431" y="547"/>
      <point x="463" y="474"/>
    </contour>
  </outline>
</glyph>
<glyph name="less" format="1">
  <advance width="680"/>
  <unicode hex="003C"/>
  <outline>
    <contour>
      <point x="553" y="1" type="qcurve" name="sh02"/>
      <point x="553" y="-15" type="line" name="sv01"/>
      <point x="443" y="48"/>
      <point x="225" y="175"/>
      <point x="115" y="238" type="qcurve" name="ah01"/>
      <point x="225" y="301"/>
      <point x="443" y="428"/>
      <point x="553" y="491" type="qcurve" name="sv02"/>
      <point x="553" y="475" type="line" name="sh01"/>
      <point x="450" y="415"/>
      <point x="244" y="298"/>
      <point x="141" y="238" type="qcurve" name="sh03"/>
      <point x="244" y="178"/>
      <point x="450" y="61"/>
    </contour>
  </outline>
</glyph>
<glyph name="greater" format="1">
  <advance width="650"/>
  <unicode hex="003E"/>
  <outline>
    <contour>
      <point x="115" y="-15" type="qcurve" name="sv01"/>
      <point x="115" y="1" type="line" name="sh02"/>
      <point x="218" y="61"/>
      <point x="424" y="178"/>
      <point x="527" y="238" type="qcurve" name="sh03"/>
      <point x="424" y="298"/>
      <point x="218" y="415"/>
      <point x="115" y="475" type="qcurve" name="sh01"/>
      <point x="115" y="491" type="line" name="sv02"/>
      <point x="225" y="428"/>
      <point x="443" y="301" name="fv01"/>
      <point x="553" y="238" type="qcurve" name="ah01"/>
      <point x="443" y="175"/>
      <point x="225" y="48"/>
    </contour>
  </outline>
</glyph>
<glyph name="at" format="1">
  <advance width="990"/>
  <unicode hex="0040"/>
  <outline>
    <contour>
      <point x="310" y="188" type="qcurve" name="sh02"/>
      <point x="310" y="150"/>
      <point x="338" y="85"/>
      <point x="362.5" y="60.5" type="qcurve" smooth="yes" name="inserted"/>
      <point x="387" y="36" name="fh01"/>
      <point x="452" y="8"/>
      <point x="490" y="8" type="qcurve" name="sv01"/>
      <point x="527" y="8"/>
      <point x="593" y="36"/>
      <point x="618.0" y="60.5" type="qcurve" smooth="yes" name="inserted"/>
      <point x="643" y="85"/>
      <point x="671" y="150"/>
      <point x="671" y="188" type="qcurve" name="sh05"/>
      <point x="671" y="225"/>
      <point x="643" y="291"/>
      <point x="618.0" y="316.0" type="qcurve" smooth="yes" name="inserted"/>
      <point x="593" y="341"/>
      <point x="527" y="369"/>
      <point x="490" y="369" type="qcurve" name="sv02"/>
      <point x="452" y="369"/>
      <point x="387" y="341"/>
      <point x="362.5" y="316.0" type="qcurve" smooth="yes" name="inserted"/>
      <point x="338" y="291" name="fh02"/>
      <point x="310" y="225"/>
    </contour>
    <contour>
      <point x="885" y="188" type="qcurve" name="sh01"/>
      <point x="883" y="129"/>
      <point x="859" y="55"/>
      <point x="840.0" y="34.5" type="qcurve" smooth="yes" name="inserted"/>
      <point x="821" y="14" name="fh03"/>
      <point x="774" y="0"/>
      <point x="749" y="0" type="qcurve"/>
      <point x="671" y="0" type="line" name="sh04"/>
      <point x="671" y="54" type="line"/>
      <point x="671" y="70"/>
      <point x="672" y="101"/>
      <point x="672" y="117" type="qcurve" name="iv01"/>
      <point x="661" y="90"/>
      <point x="625" y="45"/>
      <point x="601.5" y="28.5" type="qcurve" smooth="yes" name="inserted"/>
      <point x="578" y="12"/>
      <point x="521" y="-6"/>
      <point x="490" y="-6" type="qcurve" name="ab01"/>
      <point x="449" y="-6"/>
      <point x="379" y="24" name="fh04"/>
      <point x="352.5" y="50.5" type="qcurve" smooth="yes" name="inserted"/>
      <point x="326" y="77" name="fh05"/>
      <point x="296" y="147"/>
      <point x="296" y="188" type="qcurve" name="ih01"/>
      <point x="296" y="228"/>
      <point x="326" y="300" name="fh06"/>
      <point x="352.5" y="326.0" type="qcurve" smooth="yes" name="inserted"/>
      <point x="379" y="352"/>
      <point x="449" y="383"/>
      <point x="490" y="383" type="qcurve" name="at01"/>
      <point x="552" y="383"/>
      <point x="649" y="314"/>
      <point x="671" y="260" type="qcurve" name="sh06"/>
      <point x="671" y="289"/>
      <point x="673" y="346"/>
      <point x="675" y="375" type="qcurve" name="at02"/>
      <point x="685" y="375" type="line"/>
      <point x="685" y="13" type="line" name="sh03"/>
      <point x="756" y="13" type="line"/>
      <point x="810" y="13"/>
      <point x="869" y="97"/>
      <point x="871" y="188" type="qcurve" name="sh07"/>
      <point x="871" y="267"/>
      <point x="811" y="407" name="fh07"/>
      <point x="759.0" y="459.0" type="qcurve" smooth="yes" name="inserted"/>
      <point x="707" y="511"/>
      <point x="568" y="571"/>
      <point x="489" y="571" type="qcurve" name="sv04"/>
      <point x="410" y="571"/>
      <point x="271" y="511"/>
      <point x="219.5" y="459.0" type="qcurve" smooth="yes" name="inserted"/>
      <point x="168" y="407" name="fh08"/>
      <point x="108" y="267"/>
      <point x="108" y="188" type="qcurve" name="sh08"/>
      <point x="108" y="109"/>
      <point x="168" y="-30" name="fh09"/>
      <point x="219.5" y="-81.5" type="qcurve" smooth="yes" name="inserted"/>
      <point x="271" y="-133" name="fh10"/>
      <point x="410" y="-193"/>
      <point x="489" y="-193" type="qcurve" name="sv06"/>
      <point x="551" y="-193"/>
      <point x="661" y="-155"/>
      <point x="708" y="-123" type="qcurve" name="sv07"/>
      <point x="710" y="-126"/>
      <point x="715" y="-131"/>
      <point x="717" y="-134" type="qcurve" name="ih02"/>
      <point x="667" y="-168"/>
      <point x="555" y="-207"/>
      <point x="489" y="-207" type="qcurve" name="sv05"/>
      <point x="407" y="-207"/>
      <point x="263" y="-145"/>
      <point x="209.5" y="-91.0" type="qcurve" smooth="yes" name="inserted"/>
      <point x="156" y="-37" name="fh11"/>
      <point x="94" y="107"/>
      <point x="94" y="189" type="qcurve" name="ah01"/>
      <point x="94" y="271"/>
      <point x="156" y="415" name="fh12"/>
      <point x="209.5" y="469.0" type="qcurve" smooth="yes" name="inserted"/>
      <point x="263" y="523"/>
      <point x="407" y="585"/>
      <point x="489" y="585" type="qcurve" name="sv03"/>
      <point x="571" y="585"/>
      <point x="715" y="523" name="fv01"/>
      <point x="769.0" y="469.0" type="qcurve" smooth="yes" name="inserted"/>
      <point x="823" y="415" name="fh13"/>
      <point x="885" y="270"/>
    </contour>
  </outline>
</glyph>
<glyph name="B" format="1">
  <advance width="516"/>
  <unicode hex="0042"/>
  <outline>
    <contour>
      <point x="35" y="14" type="line" name="sv01"/>
      <point x="106" y="14" type="line" name="dh01"/>
      <point x="106" y="686" type="line"/>
      <point x="35" y="686" type="line" name="sv02"/>
      <point x="35" y="700" type="line" name="at01"/>
      <point x="251" y="700" type="line"/>
      <point x="296" y="700"/>
      <point x="371" y="680"/>
      <point x="398.0" y="659.0" type="qcurve" smooth="yes" name="inserted"/>
      <point x="425" y="638" name="fh01"/>
      <point x="454" y="571"/>
      <point x="454" y="525" type="qcurve" name="sh02"/>
      <point x="454" y="463" name="fh02"/>
      <point x="392" y="369" name="fh03"/>
      <point x="327" y="352" type="qcurve" name="ih02"/>
      <point x="357" y="346"/>
      <point x="413" y="318" name="fh04"/>
      <point x="434.5" y="296.0" type="qcurve" smooth="yes" name="inserted"/>
      <point x="456" y="274" name="fh05"/>
      <point x="481" y="216"/>
      <point x="481" y="180" type="qcurve" name="sh04"/>
      <point x="481" y="135"/>
      <point x="445" y="68"/>
      <point x="415.5" y="45.5" type="qcurve" smooth="yes" name="inserted"/>
      <point x="386" y="23"/>
      <point x="310" y="0"/>
      <point x="269" y="0" type="qcurve"/>
      <point x="35" y="0" type="line" name="ab01"/>
    </contour>
    <contour>
      <point x="120" y="344" type="line" name="sv03"/>
      <point x="120" y="14" type="line" name="sh01"/>
      <point x="268" y="14" type="line"/>
      <point x="308" y="14"/>
      <point x="381" y="34"/>
      <point x="408.0" y="54.5" type="qcurve" smooth="yes" name="inserted"/>
      <point x="435" y="75"/>
      <point x="467" y="136"/>
      <point x="467" y="177" type="qcurve" name="dh02"/>
      <point x="467" y="220"/>
      <point x="430" y="284"/>
      <point x="399.5" y="304.0" type="qcurve" smooth="yes" name="inserted"/>
      <point x="369" y="324"/>
      <point x="291" y="344"/>
      <point x="249" y="344" type="qcurve"/>
    </contour>
    <contour>
      <point x="120" y="686" type="line" name="sv04"/>
      <point x="120" y="358" type="line" name="sh03"/>
      <point x="267" y="358" type="line"/>
      <point x="347" y="358"/>
      <point x="440" y="452"/>
      <point x="440" y="528" type="qcurve" name="ih01"/>
      <point x="440" y="570"/>
      <point x="414" y="630" name="fh06"/>
      <point x="390.5" y="649.0" type="qcurve" smooth="yes" name="inserted"/>
      <point x="367" y="668"/>
      <point x="302" y="686"/>
      <point x="263" y="686" type="qcurve"/>
    </contour>
  </outline>
</glyph>
<glyph name="C" format="1">
  <advance width="610"/>
  <unicode hex="0043"/>
  <outline>
    <contour>
      <point x="561" y="546" type="line" name="sh01"/>
      <point x="561" y="649" type="line"/>
      <point x="523" y="671"/>
      <point x="437" y="694"/>
      <point x="392" y="694" type="qcurve" name="sv01"/>
      <point x="321" y="694"/>
      <point x="196" y="639"/>
      <point x="149.5" y="592.0" type="qcurve" smooth="yes" name="inserted"/>
      <point x="103" y="545" name="fh01"/>
      <point x="49" y="419"/>
      <point x="49" y="348" type="qcurve" name="sh02"/>
      <point x="49" y="277"/>
      <point x="103" y="153" name="fh02"/>
      <point x="149.0" y="106.5" type="qcurve" smooth="yes" name="inserted"/>
      <point x="195" y="60"/>
      <point x="319" y="6"/>
      <point x="389" y="6" type="qcurve" name="sv02"/>
      <point x="437" y="6"/>
      <point x="526" y="31"/>
      <point x="565" y="54" type="qcurve" name="sv03"/>
      <point x="574" y="42" type="line" name="sh03"/>
      <point x="534" y="19"/>
      <point x="443" y="-8"/>
      <point x="392" y="-8" type="qcurve" name="ab01"/>
      <point x="318" y="-8"/>
      <point x="188" y="48"/>
      <point x="139.5" y="96.5" type="qcurve" smooth="yes" name="inserted"/>
      <point x="91" y="145" name="fh03"/>
      <point x="35" y="275"/>
      <point x="35" y="349" type="qcurve" name="dh01"/>
      <point x="35" y="423"/>
      <point x="91" y="554" name="fv01"/>
      <point x="139.5" y="602.5" type="qcurve" smooth="yes" name="inserted"/>
      <point x="188" y="651" name="fh04"/>
      <point x="318" y="708"/>
      <point x="392" y="708" type="qcurve" name="at01"/>
      <point x="443" y="708"/>
      <point x="534" y="682"/>
      <point x="575" y="658" type="qcurve"/>
      <point x="575" y="546" type="line" name="dh02"/>
    </contour>
  </outline>
</glyph>
<glyph name="D" format="1">
  <advance width="632"/>
  <unicode hex="0044"/>
  <outline>
    <contour>
      <point x="35" y="14" type="line" name="sv01"/>
      <point x="108" y="14" type="line" name="dh01"/>
      <point x="108" y="686" type="line"/>
      <point x="35" y="686" type="line" name="sv02"/>
      <point x="35" y="700" type="line" name="at01"/>
      <point x="245" y="700" type="line"/>
      <point x="317" y="700" name="fh01"/>
      <point x="445" y="651" name="fh02"/>
      <point x="493.0" y="605.5" type="qcurve" smooth="yes" name="inserted"/>
      <point x="541" y="560" name="fh03"/>
      <point x="597" y="430"/>
      <point x="597" y="350" type="qcurve" name="sh01"/>
      <point x="597" y="291"/>
      <point x="556" y="167" name="fh04"/>
      <point x="510.0" y="116.0" type="qcurve" smooth="yes" name="inserted"/>
      <point x="464" y="65" name="fh05"/>
      <point x="317" y="0"/>
      <point x="211" y="0" type="qcurve"/>
      <point x="35" y="0" type="line" name="ab01"/>
    </contour>
    <contour>
      <point x="122" y="686" type="line" name="sv03"/>
      <point x="122" y="14" type="line" name="sh02"/>
      <point x="220" y="14" type="line"/>
      <point x="319" y="14"/>
      <point x="458" y="77" name="fh06"/>
      <point x="501.5" y="125.5" type="qcurve" smooth="yes" name="inserted"/>
      <point x="545" y="174"/>
      <point x="584" y="293"/>
      <point x="584" y="350" type="qcurve" name="dh02"/>
      <point x="584" y="427"/>
      <point x="531" y="552"/>
      <point x="485.0" y="595.5" type="qcurve" smooth="yes" name="inserted"/>
      <point x="439" y="639"/>
      <point x="318" y="686"/>
      <point x="251" y="686" type="qcurve"/>
    </contour>
  </outline>
</glyph>
<glyph name="F" format="1">
  <advance width="557"/>
  <unicode hex="0046"/>
  <outline>
    <contour>
      <point x="35" y="14" type="line" name="sv01"/>
      <point x="117" y="14" type="line" name="dh01"/>
      <point x="117" y="686" type="line"/>
      <point x="35" y="686" type="line" name="sv02"/>
      <point x="35" y="700" type="line" name="at01"/>
      <point x="522" y="700" type="line"/>
      <point x="522" y="546" type="line" name="dh02"/>
      <point x="508" y="546" type="line" name="sh01"/>
      <point x="508" y="686" type="line"/>
      <point x="131" y="686" type="line" name="sv03"/>
      <point x="131" y="360" type="line" name="sh03"/>
      <point x="483" y="360" type="line" name="ih01"/>
      <point x="483" y="346" type="line"/>
      <point x="131" y="346" type="line" name="sv04"/>
      <point x="131" y="14" type="line" name="sh02"/>
      <point x="209" y="14" type="line"/>
      <point x="209" y="0" type="line"/>
      <point x="35" y="0" type="line" name="ab01"/>
    </contour>
  </outline>
</glyph>
<glyph name="G" format="1">
  <advance width="609"/>
  <unicode hex="0047"/>
  <outline>
    <contour>
      <point x="574" y="298" type="line" name="sh01"/>
      <point x="574" y="40" type="line"/>
      <point x="534" y="17"/>
      <point x="443" y="-10"/>
      <point x="392" y="-10" type="qcurve" name="ab01"/>
      <point x="318" y="-10"/>
      <point x="188" y="46" name="fv01"/>
      <point x="139.5" y="94.5" type="qcurve" smooth="yes" name="inserted"/>
      <point x="91" y="143"/>
      <point x="35" y="273"/>
      <point x="35" y="347" type="qcurve" name="dh01"/>
      <point x="35" y="421"/>
      <point x="91" y="552"/>
      <point x="139.5" y="600.5" type="qcurve" smooth="yes" name="inserted"/>
      <point x="188" y="649" name="fh01"/>
      <point x="318" y="706"/>
      <point x="392" y="706" type="qcurve" name="at01"/>
      <point x="443" y="706"/>
      <point x="534" y="680" name="fh02"/>
      <point x="575" y="656" type="qcurve" name="sh02"/>
      <point x="567" y="644" type="line" name="sv01"/>
      <point x="529" y="667"/>
      <point x="440" y="692"/>
      <point x="392" y="692" type="qcurve" name="sv02"/>
      <point x="321" y="692"/>
      <point x="196" y="637"/>
      <point x="149.5" y="590.0" type="qcurve" smooth="yes" name="inserted"/>
      <point x="103" y="543" name="fh03"/>
      <point x="49" y="417"/>
      <point x="49" y="346" type="qcurve" name="sh03"/>
      <point x="49" y="275"/>
      <point x="103" y="151" name="fh04"/>
      <point x="149.0" y="104.5" type="qcurve" smooth="yes" name="inserted"/>
      <point x="195" y="58" name="fh05"/>
      <point x="319" y="4"/>
      <point x="389" y="4" type="qcurve" name="sv03"/>
      <point x="436" y="4"/>
      <point x="522" y="27"/>
      <point x="560" y="49" type="qcurve"/>
      <point x="560" y="284" type="line" name="dh02"/>
      <point x="388" y="284" type="line" name="sv04"/>
      <point x="388" y="298" type="line" name="ih01"/>
    </contour>
  </outline>
</glyph>
<glyph name="H" format="1">
  <advance width="716"/>
  <unicode hex="0048"/>
  <outline>
    <contour>
      <point x="507" y="700" type="line" name="sv01"/>
      <point x="681" y="700" type="line"/>
      <point x="681" y="686" type="line" name="sh02"/>
      <point x="604" y="686" type="line"/>
      <point x="604" y="14" type="line" name="dh02"/>
      <point x="681" y="14" type="line" name="sh01"/>
      <point x="681" y="0" type="line"/>
      <point x="507" y="0" type="line" name="sv02"/>
      <point x="507" y="14" type="line" name="sh04"/>
      <point x="590" y="14" type="line" name="sh03"/>
      <point x="590" y="346" type="line"/>
      <point x="126" y="346" type="line" name="iv01"/>
      <point x="126" y="14" type="line" name="sh05"/>
      <point x="209" y="14" type="line" name="sh06"/>
      <point x="209" y="0" type="line"/>
      <point x="35" y="0" type="line" name="ab01"/>
      <point x="35" y="14" type="line" name="sh07"/>
      <point x="112" y="14" type="line" name="dh01"/>
      <point x="112" y="686" type="line"/>
      <point x="35" y="686" type="line" name="sh08"/>
      <point x="35" y="700" type="line" name="at01"/>
      <point x="209" y="700" type="line"/>
      <point x="209" y="686" type="line" name="sh09"/>
      <point x="126" y="686" type="line"/>
      <point x="126" y="360" type="line" name="sh10"/>
      <point x="590" y="360" type="line" name="sh11"/>
      <point x="590" y="686" type="line"/>
      <point x="507" y="686" type="line" name="sh12"/>
    </contour>
  </outline>
</glyph>
<glyph name="I" format="1">
  <advance width="244"/>
  <unicode hex="0049"/>
  <outline>
    <contour>
      <point x="35" y="14" type="line" name="sh01"/>
      <point x="112" y="14" type="line" name="ah01"/>
      <point x="112" y="686" type="line"/>
      <point x="35" y="686" type="line" name="sh02"/>
      <point x="35" y="700" type="line" name="at01"/>
      <point x="209" y="700" type="line"/>
      <point x="209" y="686" type="line" name="sh05"/>
      <point x="126" y="686" type="line" name="sv01"/>
      <point x="126" y="14" type="line" name="sh03"/>
      <point x="209" y="14" type="line" name="sh04"/>
      <point x="209" y="0" type="line"/>
      <point x="35" y="0" type="line" name="ab01"/>
    </contour>
  </outline>
</glyph>
<glyph name="K" format="1">
  <advance width="686"/>
  <unicode hex="004B"/>
  <outline>
    <contour>
      <point x="477" y="14" type="line"/>
      <point x="543" y="14" type="line" name="sh01"/>
      <point x="465" y="114"/>
      <point x="308" y="314"/>
      <point x="229" y="414" type="qcurve" name="ih01"/>
      <point x="125" y="316" type="line" name="sv02"/>
      <point x="125" y="240"/>
      <point x="126" y="89"/>
      <point x="126" y="14" type="qcurve" name="sh02"/>
      <point x="209" y="14" type="line"/>
      <point x="209" y="0" type="line"/>
      <point x="35" y="0" type="line" name="ab01"/>
      <point x="35" y="14" type="line" name="sv01"/>
      <point x="112" y="14" type="line" name="dh01"/>
      <point x="112" y="686" type="line"/>
      <point x="35" y="686" type="line" name="sv03"/>
      <point x="35" y="700" type="line" name="at01"/>
      <point x="209" y="700" type="line"/>
      <point x="209" y="686" type="line"/>
      <point x="126" y="686" type="line" name="sv04"/>
      <point x="126" y="360" type="line" name="sh03"/>
      <point x="126" y="352"/>
      <point x="125" y="339"/>
      <point x="125" y="331" type="qcurve" name="iv01"/>
      <point x="142" y="351" type="line"/>
      <point x="493" y="686" type="line" name="sh05"/>
      <point x="429" y="686" type="line"/>
      <point x="429" y="700" type="line" name="sv05"/>
      <point x="603" y="700" type="line"/>
      <point x="603" y="686" type="line"/>
      <point x="515" y="686" type="line" name="sh04"/>
      <point x="240" y="424" type="line" name="ih02"/>
      <point x="321" y="321"/>
      <point x="482" y="117"/>
      <point x="563" y="14" type="qcurve" name="dh02"/>
      <point x="651" y="14" type="line"/>
      <point x="651" y="0" type="line"/>
      <point x="477" y="0" type="line" name="sv06"/>
    </contour>
  </outline>
</glyph>
<glyph name="L" format="1">
  <advance width="566"/>
  <unicode hex="004C"/>
  <outline>
    <contour>
      <point x="35" y="14" type="line" name="sv01"/>
      <point x="112" y="14" type="line" name="dh01"/>
      <point x="112" y="686" type="line"/>
      <point x="35" y="686" type="line" name="sv02"/>
      <point x="35" y="700" type="line" name="at01"/>
      <point x="209" y="700" type="line"/>
      <point x="209" y="686" type="line"/>
      <point x="126" y="686" type="line" name="sv03"/>
      <point x="126" y="14" type="line" name="sh01"/>
      <point x="517" y="14" type="line"/>
      <point x="517" y="154" type="line" name="sh02"/>
      <point x="531" y="154" type="line" name="dh02"/>
      <point x="531" y="0" type="line"/>
      <point x="35" y="0" type="line" name="ab01"/>
    </contour>
  </outline>
</glyph>
<glyph name="M" format="1">
  <advance width="961"/>
  <unicode hex="004D"/>
  <outline>
    <contour>
      <point x="821" y="700" type="qcurve" name="sh02"/>
      <point x="921" y="700" type="line" name="sv01"/>
      <point x="921" y="686" type="line" name="sh04"/>
      <point x="844" y="686" type="line"/>
      <point x="844" y="14" type="line" name="dh02"/>
      <point x="926" y="14" type="line" name="sh03"/>
      <point x="926" y="0" type="line"/>
      <point x="752" y="0" type="line" name="sv02"/>
      <point x="752" y="14" type="line" name="sh05"/>
      <point x="830" y="14" type="line" name="sh01"/>
      <point x="830" y="645" type="line"/>
      <point x="831" y="690" type="line" name="sv03"/>
      <point x="822" y="678" type="line"/>
      <point x="811" y="663"/>
      <point x="765" y="604"/>
      <point x="735.5" y="565.5" type="qcurve" smooth="yes" name="inserted"/>
      <point x="706" y="527" name="fh01"/>
      <point x="638" y="437" name="fh02"/>
      <point x="603.5" y="392.0" type="qcurve" smooth="yes" name="inserted"/>
      <point x="569" y="347" name="fh03"/>
      <point x="504" y="262" name="fh04"/>
      <point x="478" y="228" type="qcurve" name="ih01"/>
      <point x="383" y="352"/>
      <point x="216" y="570"/>
      <point x="134" y="677" type="qcurve"/>
      <point x="125" y="690" type="line" name="sv04"/>
      <point x="125" y="679"/>
      <point x="126" y="656"/>
      <point x="126" y="645" type="qcurve"/>
      <point x="126" y="14" type="line" name="sh06"/>
      <point x="209" y="14" type="line" name="sh07"/>
      <point x="209" y="0" type="line"/>
      <point x="35" y="0" type="line" name="ab01"/>
      <point x="35" y="14" type="line" name="sh08"/>
      <point x="112" y="14" type="line" name="dh01"/>
      <point x="112" y="686" type="line"/>
      <point x="35" y="686" type="line" name="sh09"/>
      <point x="35" y="700" type="line" name="at01"/>
      <point x="135" y="700" type="line" name="sh10"/>
      <point x="168.0" y="657.0" name="inserted"/>
      <point x="232.5" y="573.0"/>
      <point x="264" y="532" type="qcurve" name="fh05"/>
      <point x="291" y="497" name="fh06"/>
      <point x="348" y="422"/>
      <point x="376.0" y="385.0" type="qcurve" smooth="yes" name="inserted"/>
      <point x="404" y="348" name="fh07"/>
      <point x="457" y="280"/>
      <point x="478" y="253" type="qcurve" name="sh11"/>
      <point x="564" y="364"/>
      <point x="735" y="589"/>
    </contour>
  </outline>
</glyph>
<glyph name="P" format="1">
  <advance width="481"/>
  <unicode hex="0050"/>
  <outline>
    <contour>
      <point x="35" y="14" type="line" name="sv01"/>
      <point x="106" y="14" type="line" name="dh01"/>
      <point x="106" y="686" type="line"/>
      <point x="35" y="686" type="line" name="sv02"/>
      <point x="35" y="700" type="line" name="at01"/>
      <point x="246" y="700" type="line"/>
      <point x="275" y="700"/>
      <point x="345" y="680"/>
      <point x="375.0" y="659.0" type="qcurve" smooth="yes" name="inserted"/>
      <point x="405" y="638" name="fh01"/>
      <point x="446" y="570"/>
      <point x="446" y="522" type="qcurve" name="dh02"/>
      <point x="446" y="439" name="fh02"/>
      <point x="335" y="341" name="fh03"/>
      <point x="232" y="341" type="qcurve"/>
      <point x="120" y="341" type="line" name="iv01"/>
      <point x="120" y="14" type="line" name="sh01"/>
      <point x="209" y="14" type="line"/>
      <point x="209" y="0" type="line"/>
      <point x="35" y="0" type="line" name="ab01"/>
    </contour>
    <contour>
      <point x="120" y="355" type="line" name="sh02"/>
      <point x="235" y="355" type="line"/>
      <point x="293" y="355"/>
      <point x="369" y="387" name="fh04"/>
      <point x="391.5" y="411.5" type="qcurve" smooth="yes" name="inserted"/>
      <point x="414" y="436"/>
      <point x="432" y="495"/>
      <point x="432" y="522" type="qcurve" name="sh03"/>
      <point x="432" y="555"/>
      <point x="402" y="614"/>
      <point x="375.5" y="636.5" type="qcurve" smooth="yes" name="inserted"/>
      <point x="349" y="659"/>
      <point x="278" y="686"/>
      <point x="236" y="686" type="qcurve"/>
      <point x="120" y="686" type="line" name="sv03"/>
    </contour>
  </outline>
</glyph>
<glyph name="R" format="1">
  <advance width="569"/>
  <unicode hex="0052"/>
  <outline>
    <contour>
      <point x="35" y="14" type="line" name="sv01"/>
      <point x="106" y="14" type="line" name="dh01"/>
      <point x="106" y="686" type="line"/>
      <point x="35" y="686" type="line" name="sv02"/>
      <point x="35" y="700" type="line" name="at01"/>
      <point x="246" y="700" type="line"/>
      <point x="275" y="700"/>
      <point x="345" y="680" name="fh01"/>
      <point x="375.0" y="659.0" type="qcurve" smooth="yes" name="inserted"/>
      <point x="405" y="638" name="fh02"/>
      <point x="446" y="570"/>
      <point x="446" y="522" type="qcurve" name="dh02"/>
      <point x="446" y="453"/>
      <point x="368" y="360" name="fh03"/>
      <point x="294" y="346" type="qcurve" name="ih01"/>
      <point x="450" y="14" type="line" name="sh01"/>
      <point x="534" y="14" type="line"/>
      <point x="534" y="0" type="line"/>
      <point x="442" y="0" type="line" name="sh03"/>
      <point x="279" y="344" type="line" name="sh02"/>
      <point x="267.5" y="342.5" name="inserted"/>
      <point x="244.0" y="341.0"/>
      <point x="232" y="341" type="qcurve"/>
      <point x="120" y="341" type="line" name="iv01"/>
      <point x="120" y="14" type="line" name="sh04"/>
      <point x="209" y="14" type="line"/>
      <point x="209" y="0" type="line"/>
      <point x="35" y="0" type="line" name="ab01"/>
    </contour>
    <contour>
      <point x="120" y="355" type="line" name="sh05"/>
      <point x="235" y="355" type="line"/>
      <point x="293" y="355"/>
      <point x="369" y="387" name="fh04"/>
      <point x="391.5" y="411.5" type="qcurve" smooth="yes" name="inserted"/>
      <point x="414" y="436"/>
      <point x="432" y="495"/>
      <point x="432" y="522" type="qcurve" name="sh06"/>
      <point x="432" y="555"/>
      <point x="402" y="614"/>
      <point x="375.5" y="636.5" type="qcurve" smooth="yes" name="inserted"/>
      <point x="349" y="659"/>
      <point x="278" y="686"/>
      <point x="236" y="686" type="qcurve"/>
      <point x="120" y="686" type="line" name="sv03"/>
    </contour>
  </outline>
</glyph>
<glyph name="S" format="1">
  <advance width="478"/>
  <unicode hex="0053"/>
  <outline>
    <contour>
      <point x="46" y="64" type="qcurve"/>
      <point x="46" y="164" type="line" name="sh01"/>
      <point x="60" y="164" type="line" name="sh02"/>
      <point x="60" y="74" type="line"/>
      <point x="89" y="45"/>
      <point x="174" y="6"/>
      <point x="236" y="6" type="qcurve" name="sv01"/>
      <point x="275" y="6"/>
      <point x="347" y="31"/>
      <point x="374.5" y="54.0" type="qcurve" smooth="yes" name="inserted"/>
      <point x="402" y="77"/>
      <point x="436" y="142"/>
      <point x="436" y="182" type="qcurve" name="sh03"/>
      <point x="436" y="228"/>
      <point x="405" y="289" name="fh01"/>
      <point x="380.0" y="308.5" type="qcurve" smooth="yes" name="inserted"/>
      <point x="355" y="328" name="fh02"/>
      <point x="290" y="351"/>
      <point x="256.0" y="360.5" type="qcurve" smooth="yes" name="inserted"/>
      <point x="222" y="370" name="sv02"/>
      <point x="156" y="391"/>
      <point x="129.5" y="407.5" type="qcurve" smooth="yes" name="inserted"/>
      <point x="103" y="424" name="fh03"/>
      <point x="68" y="476"/>
      <point x="66" y="517" type="qcurve" name="dh01"/>
      <point x="64" y="550"/>
      <point x="83" y="617"/>
      <point x="104.0" y="644.0" type="qcurve" smooth="yes" name="inserted"/>
      <point x="125" y="671" name="fh04"/>
      <point x="191" y="704"/>
      <point x="238" y="704" type="qcurve" name="at01"/>
      <point x="254" y="704"/>
      <point x="293" y="700"/>
      <point x="312.5" y="695.5" type="qcurve" smooth="yes" name="inserted"/>
      <point x="332" y="691"/>
      <point x="370" y="673"/>
      <point x="386" y="660" type="qcurve"/>
      <point x="386" y="546" type="line" name="ih01"/>
      <point x="372" y="546" type="line" name="sh04"/>
      <point x="372" y="653" type="line"/>
      <point x="352" y="668"/>
      <point x="284" y="690"/>
      <point x="236" y="690" type="qcurve" name="sv03"/>
      <point x="197" y="690"/>
      <point x="138" y="663"/>
      <point x="118.5" y="640.5" type="qcurve" smooth="yes" name="inserted"/>
      <point x="99" y="618" name="fh05"/>
      <point x="80" y="561"/>
      <point x="80" y="530" type="qcurve" name="sh05"/>
      <point x="80" y="476"/>
      <point x="134" y="419"/>
      <point x="174.5" y="402.5" type="qcurve" smooth="yes" name="inserted"/>
      <point x="215" y="386" name="iv01"/>
      <point x="310" y="364"/>
      <point x="351.5" y="343.5" type="qcurve" smooth="yes" name="inserted"/>
      <point x="393" y="323" name="fh06"/>
      <point x="449" y="251"/>
      <point x="450" y="186" type="qcurve" name="dh02"/>
      <point x="451" y="142"/>
      <point x="418" y="70" name="fh07"/>
      <point x="389.0" y="44.5" type="qcurve" smooth="yes" name="inserted"/>
      <point x="360" y="19"/>
      <point x="282" y="-8"/>
      <point x="238" y="-8" type="qcurve" name="ab01"/>
      <point x="198" y="-8"/>
      <point x="135" y="8"/>
      <point x="111.5" y="19.5" type="qcurve" smooth="yes" name="inserted"/>
      <point x="88" y="31"/>
      <point x="55" y="55"/>
    </contour>
  </outline>
</glyph>
<glyph name="T" format="1">
  <advance width="623"/>
  <unicode hex="0054"/>
  <outline>
    <contour>
      <point x="225" y="14" type="line" name="sh01"/>
      <point x="304" y="14" type="line" name="ah01"/>
      <point x="304" y="686" type="line"/>
      <point x="49" y="686" type="line" name="sv01"/>
      <point x="49" y="546" type="line" name="sh03"/>
      <point x="35" y="546" type="line" name="sh02"/>
      <point x="35" y="700" type="line" name="at01"/>
      <point x="588" y="700" type="line"/>
      <point x="588" y="546" type="line" name="sh05"/>
      <point x="574" y="546" type="line" name="sh06"/>
      <point x="574" y="686" type="line"/>
      <point x="318" y="686" type="line" name="sv02"/>
      <point x="318" y="14" type="line" name="sh04"/>
      <point x="399" y="14" type="line" name="sh07"/>
      <point x="399" y="0" type="line"/>
      <point x="225" y="0" type="line" name="ab01"/>
    </contour>
  </outline>
</glyph>
<glyph name="U" format="1">
  <advance width="674"/>
  <unicode hex="0055"/>
  <outline>
    <contour>
      <point x="35" y="700" type="line" name="at01"/>
      <point x="209" y="700" type="line"/>
      <point x="209" y="686" type="line"/>
      <point x="126" y="686" type="line" name="sh01"/>
      <point x="126" y="229" type="line"/>
      <point x="126" y="175"/>
      <point x="157" y="92" name="fh01"/>
      <point x="185.0" y="63.5" type="qcurve" smooth="yes" name="inserted"/>
      <point x="213" y="35"/>
      <point x="291" y="6"/>
      <point x="337" y="6" type="qcurve" name="sv02"/>
      <point x="382" y="6"/>
      <point x="460" y="35"/>
      <point x="488.0" y="63.5" type="qcurve" smooth="yes" name="inserted"/>
      <point x="516" y="92"/>
      <point x="548" y="175"/>
      <point x="548" y="229" type="qcurve"/>
      <point x="548" y="686" type="line" name="sh02"/>
      <point x="465" y="686" type="line" name="sv03"/>
      <point x="465" y="700" type="line" name="sv04"/>
      <point x="639" y="700" type="line"/>
      <point x="639" y="686" type="line"/>
      <point x="562" y="686" type="line" name="dh02"/>
      <point x="562" y="226" type="line"/>
      <point x="562" y="169"/>
      <point x="527" y="81" name="fh02"/>
      <point x="497.0" y="51.5" type="qcurve" smooth="yes" name="inserted"/>
      <point x="467" y="22"/>
      <point x="385" y="-8"/>
      <point x="337" y="-8" type="qcurve" name="ab01"/>
      <point x="289" y="-8"/>
      <point x="206" y="22"/>
      <point x="176.0" y="51.5" type="qcurve" smooth="yes" name="inserted"/>
      <point x="146" y="81" name="fh03"/>
      <point x="112" y="169"/>
      <point x="112" y="226" type="qcurve"/>
      <point x="112" y="686" type="line" name="dh01"/>
      <point x="35" y="686" type="line" name="sv01"/>
    </contour>
  </outline>
</glyph>
<glyph name="V" format="1">
  <advance width="844"/>
  <unicode hex="0056"/>
  <outline>
    <contour>
      <point x="35" y="700" type="line" name="at01"/>
      <point x="209" y="700" type="line"/>
      <point x="209" y="686" type="line"/>
      <point x="133" y="686" type="line" name="sh02"/>
      <point x="203" y="519"/>
      <point x="343" y="191" name="fh01"/>
      <point x="413" y="25" type="qcurve" name="fh02"/>
      <point x="422" y="0" type="line" name="sh03"/>
      <point x="431" y="25" type="line" name="fh03"/>
      <point x="501" y="191"/>
      <point x="641" y="519"/>
      <point x="711" y="686" type="qcurve" name="sh05"/>
      <point x="635" y="686" type="line"/>
      <point x="635" y="700" type="line" name="sv02"/>
      <point x="809" y="700" type="line"/>
      <point x="809" y="686" type="line"/>
      <point x="726" y="686" type="line" name="sh04"/>
      <point x="650" y="505"/>
      <point x="498" y="148"/>
      <point x="422" y="-32" type="qcurve" name="ah01"/>
      <point x="346" y="148"/>
      <point x="193" y="505"/>
      <point x="117" y="686" type="qcurve" name="sh01"/>
      <point x="35" y="686" type="line" name="sv01"/>
    </contour>
  </outline>
</glyph>
<glyph name="X" format="1">
  <advance width="710"/>
  <unicode hex="0058"/>
  <outline>
    <contour>
      <point x="35" y="700" type="line" name="at01"/>
      <point x="209" y="700" type="line"/>
      <point x="209" y="686" type="line" name="sh03"/>
      <point x="150" y="686" type="line" name="sh04"/>
      <point x="201" y="609"/>
      <point x="299" y="457"/>
      <point x="349" y="381" type="qcurve" name="fh01"/>
      <point x="357" y="368" type="line" name="iv01"/>
      <point x="365" y="381" type="line" name="fv01"/>
      <point x="560" y="686" type="line" name="sh06"/>
      <point x="501" y="686" type="line" name="sh08"/>
      <point x="501" y="700" type="line" name="sv01"/>
      <point x="675" y="700" type="line"/>
      <point x="675" y="686" type="line" name="sh10"/>
      <point x="576" y="686" type="line" name="sh11"/>
      <point x="523" y="602"/>
      <point x="418" y="439"/>
      <point x="365" y="356" type="qcurve" name="ih01"/>
      <point x="421" y="269"/>
      <point x="532" y="100"/>
      <point x="588" y="14" type="qcurve" name="dh02"/>
      <point x="675" y="14" type="line" name="sh09"/>
      <point x="675" y="0" type="line"/>
      <point x="501" y="0" type="line" name="sv02"/>
      <point x="501" y="14" type="line" name="sh07"/>
      <point x="571" y="14" type="line" name="sh05"/>
      <point x="397" y="279" type="line"/>
      <point x="386" y="296"/>
      <point x="365" y="332"/>
      <point x="353" y="348" type="qcurve" name="iv02"/>
      <point x="345" y="335" type="line" name="fh02"/>
      <point x="294" y="254" name="fh03"/>
      <point x="190" y="95"/>
      <point x="139" y="14" type="qcurve" name="sh01"/>
      <point x="209" y="14" type="line" name="sh02"/>
      <point x="209" y="0" type="line"/>
      <point x="35" y="0" type="line" name="ab01"/>
      <point x="35" y="14" type="line" name="sh12"/>
      <point x="124" y="14" type="line" name="dh01"/>
      <point x="345" y="360" type="line" name="ih02"/>
      <point x="134" y="686" type="line" name="sh13"/>
      <point x="35" y="686" type="line" name="sh14"/>
    </contour>
  </outline>
</glyph>
<glyph name="Y" format="1">
  <advance width="718"/>
  <unicode hex="0059"/>
  <outline>
    <contour>
      <point x="273" y="14" type="line" name="sh01"/>
      <point x="352" y="14" type="line"/>
      <point x="352" y="262" type="line" name="ah01"/>
      <point x="288" y="368"/>
      <point x="161" y="580"/>
      <point x="97" y="686" type="qcurve" name="sh02"/>
      <point x="35" y="686" type="line" name="sv01"/>
      <point x="35" y="700" type="line" name="at01"/>
      <point x="209" y="700" type="line"/>
      <point x="209" y="686" type="line" name="sv02"/>
      <point x="114" y="686" type="line" name="sh03"/>
      <point x="173" y="588"/>
      <point x="290" y="396"/>
      <point x="347" y="298" type="qcurve"/>
      <point x="359" y="272" type="line" name="ih01"/>
      <point x="360" y="272" type="line"/>
      <point x="371" y="298" type="line"/>
      <point x="602" y="686" type="line" name="sh06"/>
      <point x="509" y="686" type="line" name="sv03"/>
      <point x="509" y="700" type="line" name="sv04"/>
      <point x="683" y="700" type="line"/>
      <point x="683" y="686" type="line"/>
      <point x="619" y="686" type="line" name="sh05"/>
      <point x="556" y="579"/>
      <point x="429" y="368"/>
      <point x="366" y="262" type="qcurve" name="sh04"/>
      <point x="366" y="14" type="line" name="sv05"/>
      <point x="447" y="14" type="line" name="sh07"/>
      <point x="447" y="0" type="line"/>
      <point x="273" y="0" type="line" name="ab01"/>
    </contour>
  </outline>
</glyph>
<glyph name="Z" format="1">
  <advance width="629"/>
  <unicode hex="005A"/>
  <outline>
    <contour>
      <point x="594" y="174" type="line" name="dh02"/>
      <point x="594" y="0" type="line" name="ab01"/>
      <point x="35" y="0" type="line"/>
      <point x="35" y="14" type="line" name="sh01"/>
      <point x="545" y="686" type="line" name="sh02"/>
      <point x="52" y="686" type="line" name="dh01"/>
      <point x="52" y="735" type="line"/>
      <point x="68" y="735" type="line" name="sv02"/>
      <point x="68" y="700" type="line" name="sh03"/>
      <point x="565" y="700" type="line"/>
      <point x="565" y="686" type="line" name="ih01"/>
      <point x="55" y="14" type="line" name="sh04"/>
      <point x="580" y="14" type="line" name="sv01"/>
      <point x="580" y="174" type="line" name="sh05"/>
    </contour>
  </outline>
</glyph>
<glyph name="backslash" format="1">
  <advance width="320"/>
  <unicode hex="005C"/>
  <outline>
    <contour>
      <point x="31" y="736" type="line" name="sh01"/>
      <point x="101" y="546"/>
      <point x="239" y="171"/>
      <point x="309" y="-19" type="qcurve" name="sh02"/>
      <point x="295" y="-19" type="line" name="sh03"/>
      <point x="225" y="171"/>
      <point x="87" y="546"/>
      <point x="17" y="736" type="qcurve" name="ah01"/>
    </contour>
  </outline>
</glyph>
<glyph name="asciicircum" format="1">
  <advance width="470"/>
  <unicode hex="005E"/>
  <outline>
    <contour>
      <point x="232" y="660" type="qcurve" name="sh01"/>
      <point x="262" y="615" name="fh01"/>
      <point x="322" y="524"/>
      <point x="352" y="479" type="qcurve" name="sh02"/>
      <point x="336" y="479" type="line" name="sh03"/>
      <point x="310" y="517"/>
      <point x="258" y="595"/>
      <point x="232" y="633" type="qcurve" name="ah01"/>
      <point x="206" y="595"/>
      <point x="154" y="517"/>
      <point x="128" y="479" type="qcurve" name="sh05"/>
      <point x="112" y="479" type="line" name="sh04"/>
      <point x="142" y="524"/>
      <point x="202" y="615"/>
    </contour>
  </outline>
</glyph>
<glyph name="underscore" format="1">
  <advance width="600"/>
  <unicode hex="005F"/>
  <outline>
    <contour>
      <point x="500" y="0" type="line"/>
      <point x="100" y="0" type="line" name="ab01"/>
      <point x="100" y="14" type="line" name="ah01"/>
      <point x="500" y="14" type="line" name="sh01"/>
    </contour>
  </outline>
</glyph>
<glyph name="grave" format="1">
  <advance width="200"/>
  <unicode hex="0060"/>
  <outline>
    <contour>
      <point x="2" y="612" type="line" name="sh01"/>
      <point x="25" y="579"/>
      <point x="69" y="512"/>
      <point x="92" y="479" type="qcurve" name="sh02"/>
      <point x="76" y="479" type="line" name="sh03"/>
      <point x="53" y="512"/>
      <point x="9" y="579"/>
      <point x="-14" y="612" type="qcurve" name="ah01"/>
    </contour>
  </outline>
</glyph>
<glyph name="b" format="1">
  <advance width="532"/>
  <unicode hex="0062"/>
  <outline>
    <contour>
      <point x="35" y="14" type="line" name="sh01"/>
      <point x="108" y="14" type="line" name="dh01"/>
      <point x="108" y="736" type="line"/>
      <point x="35" y="736" type="line" name="sh02"/>
      <point x="35" y="750" type="line" name="at01"/>
      <point x="122" y="750" type="line"/>
      <point x="122" y="321" type="line"/>
      <point x="122" y="260" type="line" name="sh04"/>
      <point x="132" y="287"/>
      <point x="168" y="332" name="fv01"/>
      <point x="191.5" y="348.5" type="qcurve" smooth="yes" name="inserted"/>
      <point x="215" y="365" name="fv02"/>
      <point x="272" y="383"/>
      <point x="303" y="383" type="qcurve" name="at02"/>
      <point x="343" y="383"/>
      <point x="414" y="352" name="fh01"/>
      <point x="440.5" y="326.0" type="qcurve" smooth="yes" name="inserted"/>
      <point x="467" y="300" name="fh02"/>
      <point x="497" y="228"/>
      <point x="497" y="188" type="qcurve" name="dh02"/>
      <point x="497" y="147"/>
      <point x="467" y="77" name="fh03"/>
      <point x="440.5" y="50.5" type="qcurve" smooth="yes" name="inserted"/>
      <point x="414" y="24" name="fh04"/>
      <point x="343" y="-6"/>
      <point x="303" y="-6" type="qcurve" name="ab02"/>
      <point x="272" y="-6"/>
      <point x="215" y="12"/>
      <point x="191.5" y="28.5" type="qcurve" smooth="yes" name="inserted"/>
      <point x="168" y="45"/>
      <point x="131" y="90"/>
      <point x="121" y="117" type="qcurve" name="iv01"/>
      <point x="121" y="101"/>
      <point x="122" y="70"/>
      <point x="122" y="54" type="qcurve"/>
      <point x="122" y="0" type="line" name="sh03"/>
      <point x="35" y="0" type="line" name="ab01"/>
    </contour>
    <contour>
      <point x="483" y="188" type="qcurve" name="sh05"/>
      <point x="483" y="225"/>
      <point x="455" y="291"/>
      <point x="430.5" y="316.0" type="qcurve" smooth="yes" name="inserted"/>
      <point x="406" y="341"/>
      <point x="340" y="369"/>
      <point x="303" y="369" type="qcurve" name="sv01"/>
      <point x="265" y="369"/>
      <point x="200" y="341" name="fh05"/>
      <point x="175.0" y="316.0" type="qcurve" smooth="yes" name="inserted"/>
      <point x="150" y="291" name="fh06"/>
      <point x="122" y="225"/>
      <point x="122" y="188" type="qcurve" name="sh06"/>
      <point x="122" y="150"/>
      <point x="150" y="85" name="fh07"/>
      <point x="175.0" y="60.5" type="qcurve" smooth="yes" name="inserted"/>
      <point x="200" y="36" name="fh08"/>
      <point x="265" y="8"/>
      <point x="303" y="8" type="qcurve" name="sv02"/>
      <point x="340" y="8"/>
      <point x="406" y="36" name="fh09"/>
      <point x="430.5" y="60.5" type="qcurve" smooth="yes" name="inserted"/>
      <point x="455" y="85"/>
      <point x="483" y="150"/>
    </contour>
  </outline>
</glyph>
<glyph name="c" format="1">
  <advance width="387"/>
  <unicode hex="0063"/>
  <outline>
    <contour>
      <point x="352" y="37" type="line" name="sh01"/>
      <point x="326" y="17"/>
      <point x="264" y="-6"/>
      <point x="229" y="-6" type="qcurve" name="ab01"/>
      <point x="188" y="-6"/>
      <point x="118" y="24" name="fh01"/>
      <point x="91.5" y="50.5" type="qcurve" smooth="yes" name="inserted"/>
      <point x="65" y="77"/>
      <point x="35" y="147"/>
      <point x="35" y="188" type="qcurve" name="dh01"/>
      <point x="35" y="228"/>
      <point x="65" y="300"/>
      <point x="91.5" y="326.0" type="qcurve" smooth="yes" name="inserted"/>
      <point x="118" y="352" name="fh02"/>
      <point x="188" y="383"/>
      <point x="229" y="383" type="qcurve" name="at01"/>
      <point x="264" y="383"/>
      <point x="327" y="360"/>
      <point x="352" y="340" type="qcurve"/>
      <point x="352" y="253" type="line" name="dh02"/>
      <point x="338" y="253" type="line" name="sh02"/>
      <point x="338" y="332" type="line"/>
      <point x="315" y="349"/>
      <point x="260" y="369"/>
      <point x="229" y="369" type="qcurve" name="sv01"/>
      <point x="191" y="369"/>
      <point x="126" y="341" name="fh03"/>
      <point x="101.5" y="316.0" type="qcurve" smooth="yes" name="inserted"/>
      <point x="77" y="291" name="fh04"/>
      <point x="49" y="225"/>
      <point x="49" y="188" type="qcurve" name="sh03"/>
      <point x="49" y="150"/>
      <point x="77" y="85" name="fh05"/>
      <point x="101.5" y="60.5" type="qcurve" smooth="yes" name="inserted"/>
      <point x="126" y="36" name="fh06"/>
      <point x="191" y="8"/>
      <point x="229" y="8" type="qcurve" name="sv02"/>
      <point x="261" y="8"/>
      <point x="319" y="29"/>
      <point x="342" y="47" type="qcurve" name="sh04"/>
    </contour>
  </outline>
</glyph>
<glyph name="e" format="1">
  <advance width="435"/>
  <unicode hex="0065"/>
  <outline>
    <contour>
      <point x="229" y="369" type="qcurve" name="sv01"/>
      <point x="184" y="369"/>
      <point x="109" y="328" name="fh01"/>
      <point x="84.5" y="295.0" type="qcurve" smooth="yes" name="inserted"/>
      <point x="60" y="262" name="fh02"/>
      <point x="43" y="178"/>
      <point x="56" y="135" type="qcurve" name="sh01"/>
      <point x="137" y="168"/>
      <point x="299" y="233"/>
      <point x="380" y="266" type="qcurve" name="sh02"/>
      <point x="360" y="312"/>
      <point x="279" y="369"/>
    </contour>
    <contour>
      <point x="398" y="259" type="qcurve" name="dh02"/>
      <point x="313" y="224"/>
      <point x="146" y="157"/>
      <point x="61" y="122" type="qcurve" name="sh03"/>
      <point x="81" y="71"/>
      <point x="171" y="8"/>
      <point x="229" y="8" type="qcurve" name="sv02"/>
      <point x="265" y="8"/>
      <point x="329" y="34"/>
      <point x="353" y="57" type="qcurve" name="sh05"/>
      <point x="355" y="54"/>
      <point x="360" y="49"/>
      <point x="362" y="46" type="qcurve" name="sh04"/>
      <point x="336" y="22"/>
      <point x="268" y="-6"/>
      <point x="229" y="-6" type="qcurve" name="ab01"/>
      <point x="188" y="-6"/>
      <point x="118" y="24"/>
      <point x="91.5" y="50.5" type="qcurve" smooth="yes" name="inserted"/>
      <point x="65" y="77"/>
      <point x="35" y="147"/>
      <point x="35" y="188" type="qcurve" name="dh01"/>
      <point x="35" y="228"/>
      <point x="65" y="300"/>
      <point x="91.5" y="326.0" type="qcurve" smooth="yes" name="inserted"/>
      <point x="118" y="352" name="fh03"/>
      <point x="188" y="383"/>
      <point x="229" y="383" type="qcurve" name="at01"/>
      <point x="287" y="383" name="fh04"/>
      <point x="378" y="314"/>
    </contour>
  </outline>
</glyph>
<glyph name="f" format="1">
  <advance width="281"/>
  <unicode hex="0066"/>
  <outline>
    <contour>
      <point x="35" y="14" type="line" name="sh01"/>
      <point x="96" y="14" type="line" name="ah01"/>
      <point x="96" y="361" type="line"/>
      <point x="35" y="361" type="line" name="sv01"/>
      <point x="35" y="375" type="line" name="sh03"/>
      <point x="96" y="375" type="line" name="sh02"/>
      <point x="96" y="518" type="line"/>
      <point x="96" y="573"/>
      <point x="125" y="659" name="fh01"/>
      <point x="150.5" y="688.0" type="qcurve" smooth="yes" name="inserted"/>
      <point x="176" y="717"/>
      <point x="243" y="748"/>
      <point x="281" y="750" type="qcurve" name="at01"/>
      <point x="281" y="736" type="line" name="sh04"/>
      <point x="247" y="736"/>
      <point x="185" y="706" name="fh02"/>
      <point x="161.5" y="678.0" type="qcurve" smooth="yes" name="inserted"/>
      <point x="138" y="650"/>
      <point x="110" y="571"/>
      <point x="110" y="522" type="qcurve"/>
      <point x="110" y="375" type="line" name="sh06"/>
      <point x="240" y="375" type="line" name="sh07"/>
      <point x="240" y="361" type="line"/>
      <point x="110" y="361" type="line" name="sv02"/>
      <point x="110" y="14" type="line" name="sh05"/>
      <point x="209" y="14" type="line" name="sh08"/>
      <point x="209" y="0" type="line"/>
      <point x="35" y="0" type="line" name="ab01"/>
    </contour>
  </outline>
</glyph>
<glyph name="g" format="1">
  <advance width="533"/>
  <unicode hex="0067"/>
  <outline>
    <contour>
      <point x="414" y="375" type="qcurve"/>
      <point x="498" y="375" type="line" name="at02"/>
      <point x="498" y="361" type="line" name="sh01"/>
      <point x="424" y="361" type="line"/>
      <point x="424" y="-18" type="line" name="dh02"/>
      <point x="424" y="-74"/>
      <point x="395" y="-159" name="fh01"/>
      <point x="369.5" y="-188.0" type="qcurve" smooth="yes" name="inserted"/>
      <point x="344" y="-217"/>
      <point x="277" y="-249"/>
      <point x="239" y="-250" type="qcurve" name="ab02"/>
      <point x="198" y="-248"/>
      <point x="114" y="-223"/>
      <point x="88" y="-190" type="qcurve" name="sh02"/>
      <point x="101" y="-183" type="line" name="sh03"/>
      <point x="125" y="-213"/>
      <point x="203" y="-236"/>
      <point x="239" y="-236" type="qcurve" name="sv01"/>
      <point x="273" y="-236"/>
      <point x="336" y="-206"/>
      <point x="359.0" y="-178.0" type="qcurve" smooth="yes" name="inserted"/>
      <point x="382" y="-150"/>
      <point x="410" y="-71"/>
      <point x="410" y="-22" type="qcurve" name="sh04"/>
      <point x="410" y="54" type="line"/>
      <point x="410" y="70"/>
      <point x="411" y="101"/>
      <point x="411" y="117" type="qcurve" name="iv01"/>
      <point x="400" y="90"/>
      <point x="364" y="45"/>
      <point x="340.5" y="28.5" type="qcurve" smooth="yes" name="inserted"/>
      <point x="317" y="12"/>
      <point x="260" y="-6"/>
      <point x="229" y="-6" type="qcurve" name="ab01"/>
      <point x="188" y="-6"/>
      <point x="118" y="24" name="fh02"/>
      <point x="91.5" y="50.5" type="qcurve" smooth="yes" name="inserted"/>
      <point x="65" y="77"/>
      <point x="35" y="147"/>
      <point x="35" y="188" type="qcurve" name="dh01"/>
      <point x="35" y="228"/>
      <point x="65" y="300"/>
      <point x="91.5" y="326.0" type="qcurve" smooth="yes" name="inserted"/>
      <point x="118" y="352" name="fh03"/>
      <point x="188" y="383"/>
      <point x="229" y="383" type="qcurve" name="at01"/>
      <point x="291" y="383" name="fh04"/>
      <point x="388" y="314"/>
      <point x="410" y="260" type="qcurve" name="sh05"/>
      <point x="410" y="289"/>
      <point x="412" y="346"/>
    </contour>
    <contour>
      <point x="49" y="188" type="qcurve" name="sh06"/>
      <point x="49" y="150"/>
      <point x="77" y="85" name="fh05"/>
      <point x="101.5" y="60.5" type="qcurve" smooth="yes" name="inserted"/>
      <point x="126" y="36" name="fh06"/>
      <point x="191" y="8"/>
      <point x="229" y="8" type="qcurve" name="sv02"/>
      <point x="266" y="8"/>
      <point x="332" y="36" name="fh07"/>
      <point x="357.0" y="60.5" type="qcurve" smooth="yes" name="inserted"/>
      <point x="382" y="85" name="fh08"/>
      <point x="410" y="150"/>
      <point x="410" y="188" type="qcurve" name="sh07"/>
      <point x="410" y="225"/>
      <point x="382" y="291"/>
      <point x="357.0" y="316.0" type="qcurve" smooth="yes" name="inserted"/>
      <point x="332" y="341"/>
      <point x="266" y="369"/>
      <point x="229" y="369" type="qcurve" name="sv03"/>
      <point x="191" y="369"/>
      <point x="126" y="341" name="fh09"/>
      <point x="101.5" y="316.0" type="qcurve" smooth="yes" name="inserted"/>
      <point x="77" y="291" name="fh10"/>
      <point x="49" y="225"/>
    </contour>
  </outline>
</glyph>
<glyph name="i" format="1">
  <advance width="244"/>
  <unicode hex="0069"/>
  <outline>
    <contour>
      <point x="35" y="14" type="line" name="sh01"/>
      <point x="117" y="14" type="line" name="ah01"/>
      <point x="117" y="361" type="line"/>
      <point x="35" y="361" type="line" name="sh02"/>
      <point x="35" y="375" type="line" name="at01"/>
      <point x="131" y="375" type="line"/>
      <point x="131" y="14" type="line" name="sh03"/>
      <point x="209" y="14" type="line" name="sh04"/>
      <point x="209" y="0" type="line"/>
      <point x="35" y="0" type="line" name="ab01"/>
    </contour>
    <contour>
      <point x="104" y="500" type="qcurve" name="sh05"/>
      <point x="104" y="508"/>
      <point x="116" y="520"/>
      <point x="124" y="520" type="qcurve" name="sv01"/>
      <point x="132" y="520"/>
      <point x="144" y="508"/>
      <point x="144" y="500" type="qcurve" name="sh06"/>
      <point x="144" y="492"/>
      <point x="132" y="480"/>
      <point x="124" y="480" type="qcurve" name="av01"/>
      <point x="116" y="480"/>
      <point x="104" y="492"/>
    </contour>
  </outline>
</glyph>
<glyph name="l" format="1">
  <advance width="244"/>
  <unicode hex="006C"/>
  <outline>
    <contour>
      <point x="35" y="14" type="line" name="sh01"/>
      <point x="107" y="14" type="line" name="ah01"/>
      <point x="107" y="736" type="line"/>
      <point x="34" y="736" type="line" name="sh02"/>
      <point x="34" y="750" type="line" name="at01"/>
      <point x="121" y="750" type="line"/>
      <point x="121" y="14" type="line" name="sh03"/>
      <point x="209" y="14" type="line" name="sh04"/>
      <point x="209" y="0" type="line"/>
      <point x="35" y="0" type="line" name="ab01"/>
    </contour>
  </outline>
</glyph>
<glyph name="m" format="1">
  <advance width="800"/>
  <unicode hex="006D"/>
  <outline>
    <contour>
      <point x="591" y="14" type="line" name="sh02"/>
      <point x="670" y="14" type="line" name="sh01"/>
      <point x="670" y="277" type="line"/>
      <point x="668" y="313"/>
      <point x="619" y="366"/>
      <point x="575" y="368" type="qcurve" name="sv01"/>
      <point x="542" y="368"/>
      <point x="482" y="347"/>
      <point x="459.0" y="328.0" type="qcurve" smooth="yes" name="inserted"/>
      <point x="436" y="309"/>
      <point x="407" y="257"/>
      <point x="406" y="226" type="qcurve"/>
      <point x="406" y="14" type="line" name="sh03"/>
      <point x="487" y="14" type="line" name="sh04"/>
      <point x="487" y="0" type="line"/>
      <point x="313" y="0" type="line" name="sv02"/>
      <point x="313" y="14" type="line" name="sh05"/>
      <point x="392" y="14" type="line" name="dh02"/>
      <point x="392" y="277" type="line"/>
      <point x="390" y="313"/>
      <point x="341" y="366"/>
      <point x="297" y="368" type="qcurve" name="sv03"/>
      <point x="263" y="368"/>
      <point x="202" y="346"/>
      <point x="178.5" y="326.5" type="qcurve" smooth="yes" name="inserted"/>
      <point x="155" y="307"/>
      <point x="128" y="252"/>
      <point x="128" y="220" type="qcurve" name="iv01"/>
      <point x="128" y="14" type="line" name="sh06"/>
      <point x="209" y="14" type="line" name="sh07"/>
      <point x="209" y="0" type="line"/>
      <point x="35" y="0" type="line" name="ab01"/>
      <point x="35" y="14" type="line" name="sh08"/>
      <point x="114" y="14" type="line" name="dh01"/>
      <point x="114" y="361" type="line"/>
      <point x="39" y="361" type="line" name="sh09"/>
      <point x="39" y="375" type="line" name="at03"/>
      <point x="122" y="375" type="line"/>
      <point x="124" y="322" type="line"/>
      <point x="124" y="309"/>
      <point x="125" y="290"/>
      <point x="125" y="277" type="qcurve" name="sh10"/>
      <point x="145" y="324" name="fv01"/>
      <point x="233" y="382" name="fh01"/>
      <point x="290" y="382" type="qcurve" name="at02"/>
      <point x="339" y="382" name="fh02"/>
      <point x="400" y="327"/>
      <point x="405" y="282" type="qcurve" name="sh11"/>
      <point x="426" y="327"/>
      <point x="513" y="382" name="fv02"/>
      <point x="568" y="382" type="qcurve" name="at01"/>
      <point x="621" y="382" name="fh03"/>
      <point x="682" y="320"/>
      <point x="684" y="270" type="qcurve"/>
      <point x="684" y="14" type="line" name="sh12"/>
      <point x="765" y="14" type="line" name="sh13"/>
      <point x="765" y="0" type="line"/>
      <point x="591" y="0" type="line" name="sv04"/>
    </contour>
  </outline>
</glyph>
<glyph name="n" format="1">
  <advance width="522"/>
  <unicode hex="006E"/>
  <outline>
    <contour>
      <point x="313" y="14" type="line" name="sh02"/>
      <point x="392" y="14" type="line" name="sh01"/>
      <point x="392" y="277" type="line"/>
      <point x="390" y="313"/>
      <point x="341" y="366"/>
      <point x="297" y="368" type="qcurve" name="sv01"/>
      <point x="263" y="368"/>
      <point x="202" y="346"/>
      <point x="178.5" y="326.5" type="qcurve" smooth="yes" name="inserted"/>
      <point x="155" y="307"/>
      <point x="128" y="252"/>
      <point x="128" y="220" type="qcurve" name="iv01"/>
      <point x="128" y="14" type="line" name="sh03"/>
      <point x="209" y="14" type="line" name="sh04"/>
      <point x="209" y="0" type="line"/>
      <point x="35" y="0" type="line" name="ab01"/>
      <point x="35" y="14" type="line" name="sh05"/>
      <point x="114" y="14" type="line" name="dh01"/>
      <point x="114" y="361" type="line"/>
      <point x="39" y="361" type="line" name="sh06"/>
      <point x="39" y="375" type="line" name="at02"/>
      <point x="122" y="375" type="line"/>
      <point x="124" y="322" type="line" name="sh07"/>
      <point x="124" y="309"/>
      <point x="125" y="290"/>
      <point x="125" y="277" type="qcurve" name="iv02"/>
      <point x="145" y="324"/>
      <point x="233" y="382"/>
      <point x="290" y="382" type="qcurve" name="at01"/>
      <point x="343" y="382" name="fv01"/>
      <point x="404" y="320" name="fh01"/>
      <point x="406" y="270" type="qcurve"/>
      <point x="406" y="14" type="line" name="dh02"/>
      <point x="487" y="14" type="line" name="sh08"/>
      <point x="487" y="0" type="line"/>
      <point x="313" y="0" type="line" name="sv02"/>
    </contour>
  </outline>
</glyph>
<glyph name="o" format="1">
  <advance width="461"/>
  <unicode hex="006F"/>
  <outline>
    <contour>
      <point x="36" y="188" type="qcurve" name="dh01"/>
      <point x="36" y="228"/>
      <point x="66" y="300" name="fh01"/>
      <point x="92.5" y="326.5" type="qcurve" smooth="yes" name="inserted"/>
      <point x="119" y="353" name="fh02"/>
      <point x="189" y="384"/>
      <point x="230" y="384" type="qcurve" name="at01"/>
      <point x="270" y="384"/>
      <point x="342" y="353" name="fh03"/>
      <point x="368.5" y="326.5" type="qcurve" smooth="yes" name="inserted"/>
      <point x="395" y="300" name="fh04"/>
      <point x="426" y="228"/>
      <point x="426" y="188" type="qcurve" name="dh02"/>
      <point x="426" y="147"/>
      <point x="395" y="77" name="fh05"/>
      <point x="368.5" y="50.5" type="qcurve" smooth="yes" name="inserted"/>
      <point x="342" y="24" name="fh06"/>
      <point x="270" y="-6"/>
      <point x="230" y="-6" type="qcurve" name="ab01"/>
      <point x="189" y="-6"/>
      <point x="119" y="24" name="fh07"/>
      <point x="92.5" y="50.5" type="qcurve" smooth="yes" name="inserted"/>
      <point x="66" y="77" name="fh08"/>
      <point x="36" y="147"/>
    </contour>
    <contour>
      <point x="50" y="188" type="qcurve" name="sh01"/>
      <point x="50" y="150"/>
      <point x="78" y="85" name="fh09"/>
      <point x="102.5" y="60.5" type="qcurve" smooth="yes" name="inserted"/>
      <point x="127" y="36" name="fh10"/>
      <point x="192" y="8"/>
      <point x="230" y="8" type="qcurve" name="sv01"/>
      <point x="267" y="8"/>
      <point x="333" y="36" name="fh11"/>
      <point x="358.0" y="60.5" type="qcurve" smooth="yes" name="inserted"/>
      <point x="383" y="85"/>
      <point x="411" y="150"/>
      <point x="411" y="188" type="qcurve" name="sh02"/>
      <point x="411" y="225"/>
      <point x="383" y="291"/>
      <point x="358.0" y="316.0" type="qcurve" smooth="yes" name="inserted"/>
      <point x="333" y="341"/>
      <point x="267" y="369"/>
      <point x="230" y="369" type="qcurve" name="sv02"/>
      <point x="192" y="369"/>
      <point x="127" y="341" name="fh12"/>
      <point x="102.5" y="316.0" type="qcurve" smooth="yes" name="inserted"/>
      <point x="78" y="291" name="fh13"/>
      <point x="50" y="225"/>
    </contour>
  </outline>
</glyph>
<glyph name="q" format="1">
  <advance width="532"/>
  <unicode hex="0071"/>
  <outline>
    <contour>
      <point x="321" y="-236" type="line" name="sh02"/>
      <point x="409" y="-236" type="line" name="sh01"/>
      <point x="409" y="61" type="line"/>
      <point x="409" y="75"/>
      <point x="410" y="101"/>
      <point x="410" y="115" type="qcurve" name="iv01"/>
      <point x="399" y="88"/>
      <point x="364" y="43"/>
      <point x="340.5" y="26.5" type="qcurve" smooth="yes" name="inserted"/>
      <point x="317" y="10" name="fh01"/>
      <point x="260" y="-8"/>
      <point x="229" y="-8" type="qcurve" name="ab01"/>
      <point x="188" y="-8"/>
      <point x="118" y="23" name="fh02"/>
      <point x="91.5" y="49.0" type="qcurve" smooth="yes" name="inserted"/>
      <point x="65" y="75"/>
      <point x="35" y="146"/>
      <point x="35" y="187" type="qcurve" name="dh01"/>
      <point x="35" y="227"/>
      <point x="65" y="298"/>
      <point x="91.5" y="324.5" type="qcurve" smooth="yes" name="inserted"/>
      <point x="118" y="351" name="fh03"/>
      <point x="188" y="381"/>
      <point x="229" y="381" type="qcurve" name="at01"/>
      <point x="292" y="381" name="fh04"/>
      <point x="390" y="312"/>
      <point x="411" y="257" type="qcurve" name="sh03"/>
      <point x="411" y="286"/>
      <point x="414" y="346"/>
      <point x="414" y="375" type="qcurve"/>
      <point x="497" y="375" type="line" name="at02"/>
      <point x="497" y="361" type="line" name="sh05"/>
      <point x="424" y="361" type="line"/>
      <point x="424" y="-236" type="line" name="dh02"/>
      <point x="495" y="-236" type="line" name="sh04"/>
      <point x="495" y="-250" type="line"/>
      <point x="321" y="-250" type="line" name="ab02"/>
    </contour>
    <contour>
      <point x="49" y="187" type="qcurve" name="sh06"/>
      <point x="49" y="149"/>
      <point x="77" y="84" name="fh05"/>
      <point x="101.5" y="59.0" type="qcurve" smooth="yes" name="inserted"/>
      <point x="126" y="34" name="fh06"/>
      <point x="191" y="6"/>
      <point x="229" y="6" type="qcurve" name="sv01"/>
      <point x="266" y="6"/>
      <point x="332" y="34" name="fh07"/>
      <point x="357.0" y="59.0" type="qcurve" smooth="yes" name="inserted"/>
      <point x="382" y="84" name="fh08"/>
      <point x="410" y="149"/>
      <point x="410" y="187" type="qcurve" name="sh07"/>
      <point x="410" y="224"/>
      <point x="382" y="290"/>
      <point x="357.0" y="314.5" type="qcurve" smooth="yes" name="inserted"/>
      <point x="332" y="339"/>
      <point x="266" y="367"/>
      <point x="229" y="367" type="qcurve" name="sv02"/>
      <point x="191" y="367"/>
      <point x="126" y="339" name="fh09"/>
      <point x="101.5" y="314.5" type="qcurve" smooth="yes" name="inserted"/>
      <point x="77" y="290" name="fh10"/>
      <point x="49" y="224"/>
    </contour>
  </outline>
</glyph>
<glyph name="r" format="1">
  <advance width="326"/>
  <unicode hex="0072"/>
  <outline>
    <contour>
      <point x="35" y="14" type="line" name="sh01"/>
      <point x="114" y="14" type="line" name="dh01"/>
      <point x="114" y="361" type="line"/>
      <point x="39" y="361" type="line" name="sh02"/>
      <point x="39" y="375" type="line" name="at01"/>
      <point x="122" y="375" type="line"/>
      <point x="124" y="322" type="line"/>
      <point x="124" y="309"/>
      <point x="125" y="290"/>
      <point x="125" y="277" type="qcurve" name="sh04"/>
      <point x="146" y="325"/>
      <point x="234" y="380"/>
      <point x="291" y="382" type="qcurve" name="at02"/>
      <point x="291" y="368" type="line" name="dh02"/>
      <point x="258" y="367"/>
      <point x="199" y="344"/>
      <point x="176.5" y="324.5" type="qcurve" smooth="yes" name="inserted"/>
      <point x="154" y="305"/>
      <point x="128" y="251"/>
      <point x="128" y="220" type="qcurve"/>
      <point x="128" y="14" type="line" name="sh03"/>
      <point x="209" y="14" type="line" name="sh05"/>
      <point x="209" y="0" type="line"/>
      <point x="35" y="0" type="line" name="ab01"/>
    </contour>
  </outline>
</glyph>
<glyph name="s" format="1">
  <advance width="315"/>
  <unicode hex="0073"/>
  <outline>
    <contour>
      <point x="69" y="91" type="line" name="sh02"/>
      <point x="69" y="32" type="line"/>
      <point x="92" y="15"/>
      <point x="147" y="6"/>
      <point x="172" y="6" type="qcurve" name="sv01"/>
      <point x="187" y="6"/>
      <point x="221" y="18"/>
      <point x="235.5" y="29.5" type="qcurve" smooth="yes" name="inserted"/>
      <point x="250" y="41"/>
      <point x="270" y="75"/>
      <point x="270" y="98" type="qcurve" name="sh03"/>
      <point x="270" y="129"/>
      <point x="240" y="163"/>
      <point x="218.0" y="172.5" type="qcurve" smooth="yes" name="inserted"/>
      <point x="196" y="182"/>
      <point x="143" y="196" name="sv02"/>
      <point x="121.0" y="205.5" type="qcurve" smooth="yes" name="inserted"/>
      <point x="99" y="215" name="fh01"/>
      <point x="69" y="249"/>
      <point x="69" y="280" type="qcurve" name="dh01"/>
      <point x="69" y="304"/>
      <point x="86" y="340" name="fh02"/>
      <point x="100.5" y="353.0" type="qcurve" smooth="yes" name="inserted"/>
      <point x="115" y="366" name="fh03"/>
      <point x="151" y="379"/>
      <point x="170" y="379" type="qcurve" name="at01"/>
      <point x="170" y="379"/>
      <point x="194" y="379"/>
      <point x="209.5" y="376.0" type="qcurve" smooth="yes" name="inserted"/>
      <point x="225" y="373"/>
      <point x="258" y="361"/>
      <point x="269" y="349" type="qcurve"/>
      <point x="269" y="284" type="line" name="ih01"/>
      <point x="255" y="284" type="line" name="sh04"/>
      <point x="255" y="343" type="line"/>
      <point x="246" y="352"/>
      <point x="218" y="361"/>
      <point x="204.5" y="363.0" type="qcurve" smooth="yes" name="inserted"/>
      <point x="191" y="365"/>
      <point x="170" y="365" name="sv03"/>
      <point x="168" y="365" type="qcurve"/>
      <point x="155" y="365"/>
      <point x="126" y="357"/>
      <point x="113.0" y="347.5" type="qcurve" smooth="yes" name="inserted"/>
      <point x="100" y="338"/>
      <point x="83" y="307"/>
      <point x="83" y="285" type="qcurve" name="sh05"/>
      <point x="82" y="256"/>
      <point x="112" y="225"/>
      <point x="134.5" y="215.5" type="qcurve" smooth="yes" name="inserted"/>
      <point x="157" y="206" name="iv01"/>
      <point x="209" y="193"/>
      <point x="231.5" y="182.0" type="qcurve" smooth="yes" name="inserted"/>
      <point x="254" y="171" name="fh04"/>
      <point x="284" y="134"/>
      <point x="284" y="101" type="qcurve" name="dh02"/>
      <point x="284" y="82"/>
      <point x="270" y="43" name="fh05"/>
      <point x="255.5" y="27.5" type="qcurve" smooth="yes" name="inserted"/>
      <point x="241" y="12" name="fh06"/>
      <point x="198" y="-8"/>
      <point x="168" y="-8" type="qcurve" name="ab01"/>
      <point x="163" y="-8"/>
      <point x="136" y="-6"/>
      <point x="119.0" y="-3.0" type="qcurve" smooth="yes" name="inserted"/>
      <point x="102" y="0"/>
      <point x="67" y="14"/>
      <point x="55" y="26" type="qcurve"/>
      <point x="55" y="91" type="line" name="sh01"/>
    </contour>
  </outline>
</glyph>
<glyph name="u" format="1">
  <advance width="518"/>
  <unicode hex="0075"/>
  <outline>
    <contour>
      <point x="35" y="375" type="line" name="at01"/>
      <point x="128" y="375" type="line"/>
      <point x="128" y="98" type="line" name="sh01"/>
      <point x="130" y="62"/>
      <point x="179" y="9"/>
      <point x="223" y="7" type="qcurve" name="sv01"/>
      <point x="257" y="7"/>
      <point x="318" y="29"/>
      <point x="341.0" y="48.5" type="qcurve" smooth="yes" name="inserted"/>
      <point x="364" y="68"/>
      <point x="392" y="123"/>
      <point x="392" y="155" type="qcurve"/>
      <point x="392" y="361" type="line" name="sh02"/>
      <point x="313" y="361" type="line" name="sv02"/>
      <point x="313" y="375" type="line" name="sh03"/>
      <point x="406" y="375" type="line" name="dh02"/>
      <point x="406" y="14" type="line"/>
      <point x="483" y="14" type="line" name="sh04"/>
      <point x="483" y="0" type="line" name="ab01"/>
      <point x="400" y="0" type="line"/>
      <point x="397" y="53" type="line"/>
      <point x="395" y="98" type="line" name="sh05"/>
      <point x="375" y="50"/>
      <point x="286" y="-7"/>
      <point x="230" y="-7" type="qcurve" name="ab02"/>
      <point x="177" y="-7" name="fv01"/>
      <point x="116" y="55" name="fh01"/>
      <point x="114" y="105" type="qcurve" name="dh01"/>
      <point x="114" y="361" type="line"/>
      <point x="35" y="361" type="line" name="sh06"/>
    </contour>
  </outline>
</glyph>
<glyph name="v" format="1">
  <advance width="590"/>
  <unicode hex="0076"/>
  <outline>
    <contour>
      <point x="35" y="375" type="line" name="at01"/>
      <point x="196" y="375" type="line"/>
      <point x="196" y="361" type="line" name="sh03"/>
      <point x="122" y="361" type="line" name="sh02"/>
      <point x="166" y="273" name="fh01"/>
      <point x="253" y="96" name="fh02"/>
      <point x="298" y="8" type="qcurve" name="sh04"/>
      <point x="339" y="90" name="fh03"/>
      <point x="429" y="270"/>
      <point x="474" y="361" type="qcurve" name="sh06"/>
      <point x="416" y="361" type="line" name="sh07"/>
      <point x="416" y="375" type="line" name="sv01"/>
      <point x="555" y="375" type="line"/>
      <point x="555" y="361" type="line" name="sh08"/>
      <point x="489" y="361" type="line" name="sh05"/>
      <point x="441" y="264"/>
      <point x="346" y="74"/>
      <point x="298" y="-23" type="qcurve" name="ah01"/>
      <point x="250" y="74"/>
      <point x="155" y="264"/>
      <point x="107" y="361" type="qcurve" name="sh01"/>
      <point x="35" y="361" type="line" name="sh09"/>
    </contour>
  </outline>
</glyph>
<glyph name="x" format="1">
  <advance width="488"/>
  <unicode hex="0078"/>
  <outline>
    <contour>
      <point x="35" y="375" type="line" name="at01"/>
      <point x="209" y="375" type="line"/>
      <point x="209" y="361" type="line" name="sh03"/>
      <point x="121" y="361" type="line" name="sh04"/>
      <point x="240" y="198" type="line" name="ih05"/>
      <point x="357" y="361" type="line" name="sh06"/>
      <point x="279" y="361" type="line" name="sh08"/>
      <point x="279" y="375" type="line" name="sv01"/>
      <point x="453" y="375" type="line"/>
      <point x="453" y="361" type="line" name="sh09"/>
      <point x="374" y="361" type="line" name="sh10"/>
      <point x="248" y="186" type="line" name="ih04"/>
      <point x="280" y="142"/>
      <point x="342" y="58"/>
      <point x="374" y="14" type="qcurve" name="ih02"/>
      <point x="453" y="14" type="line"/>
      <point x="453" y="0" type="line" name="dh02"/>
      <point x="279" y="0" type="line" name="sv03"/>
      <point x="279" y="14" type="line" name="sh07"/>
      <point x="358" y="14" type="line" name="sh05"/>
      <point x="328" y="56"/>
      <point x="269" y="135"/>
      <point x="240" y="175" type="qcurve" name="ih06"/>
      <point x="211" y="134"/>
      <point x="154" y="54"/>
      <point x="125" y="14" type="qcurve" name="sh01"/>
      <point x="209" y="14" type="line" name="sh02"/>
      <point x="209" y="0" type="line"/>
      <point x="35" y="0" type="line" name="dh01"/>
      <point x="35" y="14" type="line" name="sv02"/>
      <point x="107" y="14" type="line" name="ih01"/>
      <point x="139" y="57"/>
      <point x="199" y="143"/>
      <point x="231" y="187" type="qcurve" name="ih03"/>
      <point x="199" y="231"/>
      <point x="135" y="316"/>
      <point x="103" y="361" type="qcurve" name="sh11"/>
      <point x="35" y="361" type="line" name="sh12"/>
    </contour>
  </outline>
</glyph>
<glyph name="y" format="1">
  <advance width="590"/>
  <unicode hex="0079"/>
  <outline>
    <contour>
      <point x="92" y="-236" type="line" name="sh02"/>
      <point x="173" y="-236" type="line" name="sh01"/>
      <point x="202" y="-178"/>
      <point x="260" y="-61"/>
      <point x="289" y="-4" type="qcurve" name="ih03"/>
      <point x="243" y="87"/>
      <point x="152" y="269"/>
      <point x="107" y="361" type="qcurve" name="ih04"/>
      <point x="35" y="361" type="line" name="dh01"/>
      <point x="35" y="375" type="line" name="at01"/>
      <point x="196" y="375" type="line"/>
      <point x="196" y="361" type="line" name="sh05"/>
      <point x="125" y="361" type="line" name="sh04"/>
      <point x="168" y="273"/>
      <point x="254" y="101"/>
      <point x="298" y="14" type="qcurve" name="ih05"/>
      <point x="340" y="97"/>
      <point x="427" y="273"/>
      <point x="471" y="361" type="qcurve" name="sh03"/>
      <point x="416" y="361" type="line" name="sh06"/>
      <point x="416" y="375" type="line" name="sv01"/>
      <point x="555" y="375" type="line"/>
      <point x="555" y="361" type="line" name="dh02"/>
      <point x="489" y="361" type="line" name="ih02"/>
      <point x="414" y="211"/>
      <point x="267" y="-86"/>
      <point x="192" y="-236" type="qcurve" name="ih01"/>
      <point x="266" y="-236" type="line" name="sh07"/>
      <point x="266" y="-250" type="line"/>
      <point x="92" y="-250" type="line" name="ab01"/>
    </contour>
  </outline>
</glyph>
<glyph name="z" format="1">
  <advance width="429"/>
  <unicode hex="007A"/>
  <outline>
    <contour>
      <point x="394" y="65" type="line" name="ih01"/>
      <point x="394" y="0" type="line" name="ab01"/>
      <point x="35" y="0" type="line"/>
      <point x="35" y="14" type="line" name="dh01"/>
      <point x="119" y="102"/>
      <point x="275" y="273"/>
      <point x="359" y="361" type="qcurve" name="sh01"/>
      <point x="47" y="361" type="line" name="sv02"/>
      <point x="47" y="410" type="line" name="ih02"/>
      <point x="61" y="410" type="line" name="sh02"/>
      <point x="61" y="375" type="line" name="at01"/>
      <point x="377" y="375" type="line"/>
      <point x="377" y="361" type="line" name="dh02"/>
      <point x="293" y="273"/>
      <point x="137" y="102"/>
      <point x="53" y="14" type="qcurve" name="sh03"/>
      <point x="380" y="14" type="line" name="sv01"/>
      <point x="380" y="65" type="line" name="sh04"/>
    </contour>
  </outline>
</glyph>
<glyph name="bar" format="1">
  <advance width="219"/>
  <unicode hex="007C"/>
  <outline>
    <contour>
      <point x="99" y="-232" type="line" name="ah01"/>
      <point x="99" y="700" type="line" name="at01"/>
      <point x="113" y="700" type="line"/>
      <point x="113" y="-232" type="line" name="sh01"/>
    </contour>
  </outline>
</glyph>
<glyph name="asciitilde" format="1">
  <advance width="489"/>
  <unicode hex="007E"/>
  <outline>
    <contour>
      <point x="265" y="497" type="qcurve" name="ih01"/>
      <point x="249" y="515"/>
      <point x="225" y="527"/>
      <point x="211" y="527" type="qcurve" name="sv02"/>
      <point x="203" y="527"/>
      <point x="182" y="522"/>
      <point x="172.0" y="516.0" type="qcurve" smooth="yes" name="inserted"/>
      <point x="162" y="510"/>
      <point x="147" y="489"/>
      <point x="145" y="472" type="qcurve" name="sh02"/>
      <point x="142" y="473"/>
      <point x="135" y="473"/>
      <point x="132" y="474" type="qcurve" name="ah01"/>
      <point x="133" y="492"/>
      <point x="149" y="518"/>
      <point x="160.5" y="526.0" type="qcurve" smooth="yes" name="inserted"/>
      <point x="172" y="534" name="fh01"/>
      <point x="200" y="541"/>
      <point x="214" y="541" type="qcurve" name="sv01"/>
      <point x="234" y="541"/>
      <point x="267" y="520"/>
      <point x="283" y="503" type="qcurve" name="sh03"/>
      <point x="299" y="485"/>
      <point x="323" y="473"/>
      <point x="337" y="473" type="qcurve" name="sv03"/>
      <point x="345" y="473"/>
      <point x="366" y="478"/>
      <point x="376.0" y="484.0" type="qcurve" smooth="yes" name="inserted"/>
      <point x="386" y="490"/>
      <point x="401" y="511"/>
      <point x="403" y="528" type="qcurve" name="sh04"/>
      <point x="406" y="527"/>
      <point x="413" y="527"/>
      <point x="416" y="526" type="qcurve" name="sh01"/>
      <point x="415" y="508"/>
      <point x="399" y="482" name="fh02"/>
      <point x="387.5" y="474.0" type="qcurve" smooth="yes" name="inserted"/>
      <point x="376" y="466" name="fh03"/>
      <point x="348" y="459"/>
      <point x="334" y="459" type="qcurve" name="av01"/>
      <point x="314" y="459"/>
      <point x="281" y="480"/>
    </contour>
  </outline>
</glyph>
<glyph name="cent" format="1">
  <advance width="385"/>
  <unicode hex="00A2"/>
  <outline>
    <contour>
      <point x="343" y="47" type="qcurve" name="sv01"/>
      <point x="353" y="37" type="line" name="sh01"/>
      <point x="327" y="17"/>
      <point x="264" y="-6"/>
      <point x="229" y="-6" type="qcurve" name="ab01"/>
      <point x="229" y="-68" type="line" name="sh02"/>
      <point x="215" y="-68" type="line" name="ih01"/>
      <point x="215" y="-5" type="line" name="sv02"/>
      <point x="177" y="-2"/>
      <point x="112" y="30"/>
      <point x="88.0" y="55.5" type="qcurve" smooth="yes" name="inserted"/>
      <point x="64" y="81"/>
      <point x="36" y="149"/>
      <point x="36" y="188" type="qcurve" name="dh01"/>
      <point x="36" y="227"/>
      <point x="64" y="295"/>
      <point x="88.0" y="321.0" type="qcurve" smooth="yes" name="inserted"/>
      <point x="112" y="347"/>
      <point x="177" y="379"/>
      <point x="215" y="382" type="qcurve" name="sh04"/>
      <point x="215" y="438" type="line"/>
      <point x="229" y="438" type="line" name="sv03"/>
      <point x="229" y="383" type="line" name="sh06"/>
      <point x="264" y="383"/>
      <point x="328" y="360"/>
      <point x="353" y="340" type="qcurve"/>
      <point x="352.5" y="339.5" name="inserted"/>
      <point x="352.0" y="339.0"/>
      <point x="352" y="339" type="qcurve"/>
      <point x="353" y="339" type="line"/>
      <point x="353" y="252" type="line" name="dh02"/>
      <point x="339" y="252" type="line" name="sh07"/>
      <point x="339" y="332" type="line"/>
      <point x="316" y="349"/>
      <point x="260" y="369"/>
      <point x="229" y="369" type="qcurve" name="sv04"/>
      <point x="229" y="8" type="line" name="sh05"/>
      <point x="261" y="8"/>
      <point x="320" y="29"/>
    </contour>
    <contour>
      <point x="50" y="188" type="qcurve" name="sh08"/>
      <point x="50" y="152"/>
      <point x="75" y="89"/>
      <point x="97.5" y="65.0" type="qcurve" smooth="yes" name="inserted"/>
      <point x="120" y="41" name="fh01"/>
      <point x="180" y="11"/>
      <point x="215" y="8" type="qcurve" name="sh03"/>
      <point x="215" y="368" type="line" name="sv05"/>
      <point x="180" y="365"/>
      <point x="120" y="335" name="fh02"/>
      <point x="97.5" y="311.0" type="qcurve" smooth="yes" name="inserted"/>
      <point x="75" y="287"/>
      <point x="50" y="224"/>
    </contour>
  </outline>
</glyph>
<glyph name="sterling" format="1">
  <advance width="574"/>
  <unicode hex="00A3"/>
  <outline>
    <contour>
      <point x="486" y="0" type="line"/>
      <point x="26" y="0" type="line" name="ab01"/>
      <point x="26" y="14" type="line" name="sh01"/>
      <point x="70" y="14" type="line" name="ih01"/>
      <point x="88" y="14"/>
      <point x="109" y="29"/>
      <point x="114.0" y="46.0" type="qcurve" smooth="yes" name="inserted"/>
      <point x="119" y="63"/>
      <point x="122" y="121"/>
      <point x="122" y="164" type="qcurve"/>
      <point x="122" y="311" type="line" name="sh02"/>
      <point x="57" y="311" type="line"/>
      <point x="57" y="325" type="line" name="sh03"/>
      <point x="122" y="325" type="line" name="sv01"/>
      <point x="122" y="500" type="line" name="dh01"/>
      <point x="122" y="570" name="fh01"/>
      <point x="209" y="634" name="fv01"/>
      <point x="281" y="634" type="qcurve" name="av01"/>
      <point x="348" y="634"/>
      <point x="417" y="585"/>
      <point x="437" y="545" type="qcurve" name="ih02"/>
      <point x="427" y="539" type="line" name="sh04"/>
      <point x="414" y="563"/>
      <point x="388" y="594"/>
      <point x="371.0" y="603.0" type="qcurve" smooth="yes" name="inserted"/>
      <point x="354" y="612"/>
      <point x="311" y="620"/>
      <point x="281" y="620" type="qcurve" name="sv02"/>
      <point x="239" y="620"/>
      <point x="183" y="601"/>
      <point x="166.5" y="585.0" type="qcurve" smooth="yes" name="inserted"/>
      <point x="150" y="569" name="fh02"/>
      <point x="136" y="527"/>
      <point x="136" y="504" type="qcurve" name="sh05"/>
      <point x="136" y="325" type="line" name="iv01"/>
      <point x="265" y="325" type="line"/>
      <point x="265" y="311" type="line" name="ih03"/>
      <point x="136" y="311" type="line" name="sh06"/>
      <point x="136" y="109" type="line"/>
      <point x="136" y="80"/>
      <point x="127" y="28"/>
      <point x="113" y="14" type="qcurve" name="ih04"/>
      <point x="472" y="14" type="line"/>
      <point x="472" y="123" type="line" name="sh07"/>
      <point x="486" y="123" type="line" name="dh02"/>
    </contour>
  </outline>
</glyph>
<glyph name="yen" format="1">
  <advance width="638"/>
  <unicode hex="00A5"/>
  <outline>
    <contour>
      <point x="503" y="100" type="line" name="sh02"/>
      <point x="344" y="100" type="line" name="sh01"/>
      <point x="344" y="14" type="line" name="sv02"/>
      <point x="425" y="14" type="line" name="sh03"/>
      <point x="425" y="0" type="line"/>
      <point x="251" y="0" type="line" name="ab01"/>
      <point x="251" y="14" type="line" name="sh04"/>
      <point x="330" y="14" type="line"/>
      <point x="330" y="100" type="line" name="ah01"/>
      <point x="170" y="100" type="line" name="sh05"/>
      <point x="170" y="114" type="line" name="sv01"/>
      <point x="330" y="114" type="line" name="sh06"/>
      <point x="330" y="262" type="line"/>
      <point x="329.5" y="262.0" name="inserted"/>
      <point x="329.0" y="262.5"/>
      <point x="329" y="263" type="qcurve"/>
      <point x="170" y="263" type="line" name="sh07"/>
      <point x="170" y="277" type="line" name="iv01"/>
      <point x="321" y="277" type="line" name="ih01"/>
      <point x="75" y="686" type="line" name="sh08"/>
      <point x="13" y="686" type="line" name="sv03"/>
      <point x="13" y="700" type="line" name="at01"/>
      <point x="187" y="700" type="line"/>
      <point x="187" y="686" type="line"/>
      <point x="92" y="686" type="line" name="sh09"/>
      <point x="150" y="589"/>
      <point x="271" y="398"/>
      <point x="325" y="298" type="qcurve"/>
      <point x="337" y="272" type="line" name="ih03"/>
      <point x="338" y="272" type="line"/>
      <point x="349" y="298" type="line"/>
      <point x="580" y="686" type="line" name="sh12"/>
      <point x="487" y="686" type="line"/>
      <point x="487" y="700" type="line" name="sv05"/>
      <point x="661" y="700" type="line"/>
      <point x="661" y="686" type="line"/>
      <point x="597" y="686" type="line" name="sh11"/>
      <point x="536" y="583"/>
      <point x="414" y="380"/>
      <point x="353" y="277" type="qcurve" name="ih02"/>
      <point x="503" y="277" type="line"/>
      <point x="503" y="263" type="line" name="sh13"/>
      <point x="344" y="263" type="line" name="sv04"/>
      <point x="344" y="262" type="line"/>
      <point x="344" y="114" type="line" name="sh10"/>
      <point x="503" y="114" type="line"/>
    </contour>
  </outline>
</glyph>
<glyph name="brokenbar" format="1">
  <advance width="215"/>
  <unicode hex="00A6"/>
  <outline>
    <contour>
      <point x="116" y="-233" type="line"/>
      <point x="102" y="-233" type="line" name="av01"/>
      <point x="102" y="117" type="line" name="ah01"/>
      <point x="116" y="117" type="line" name="sh01"/>
    </contour>
    <contour>
      <point x="116" y="350" type="line" name="sh02"/>
      <point x="102" y="350" type="line" name="sh03"/>
      <point x="102" y="700" type="line" name="at01"/>
      <point x="116" y="700" type="line"/>
    </contour>
  </outline>
</glyph>
<glyph name="section" format="1">
  <advance width="500"/>
  <unicode hex="00A7"/>
  <outline>
    <contour>
      <point x="173" y="311" type="qcurve"/>
      <point x="187" y="286"/>
      <point x="234" y="262"/>
      <point x="261" y="262" type="qcurve" name="sv01"/>
      <point x="281" y="262"/>
      <point x="316" y="278"/>
      <point x="328.5" y="291.5" type="qcurve" smooth="yes" name="inserted"/>
      <point x="341" y="305"/>
      <point x="355" y="340"/>
      <point x="355" y="358" type="qcurve" name="sh02"/>
      <point x="355" y="382"/>
      <point x="336" y="420"/>
      <point x="321.0" y="432.5" type="qcurve" smooth="yes" name="inserted"/>
      <point x="306" y="445"/>
      <point x="269" y="459"/>
      <point x="250" y="459" type="qcurve" name="sv02"/>
      <point x="228" y="459"/>
      <point x="194" y="442"/>
      <point x="182.5" y="428.0" type="qcurve" smooth="yes" name="inserted"/>
      <point x="171" y="414"/>
      <point x="159" y="380"/>
      <point x="159" y="363" type="qcurve" name="sh03"/>
      <point x="159.0" y="349.5" name="inserted"/>
      <point x="166.0" y="323.5"/>
    </contour>
    <contour>
      <point x="248" y="154" type="qcurve"/>
      <point x="161" y="304" type="line"/>
      <point x="153.0" y="317.0" name="inserted"/>
      <point x="145.0" y="346.0"/>
      <point x="145" y="362" type="qcurve" name="ah01"/>
      <point x="145" y="382"/>
      <point x="160" y="422"/>
      <point x="174.0" y="437.5" type="qcurve" smooth="yes" name="inserted"/>
      <point x="188" y="453" name="fv01"/>
      <point x="228" y="472"/>
      <point x="252" y="472" type="qcurve" name="iv02"/>
      <point x="268.5" y="472.0" name="inserted"/>
      <point x="299.0" y="464.0"/>
      <point x="313" y="456" type="qcurve" name="ih02"/>
      <point x="296" y="483"/>
      <point x="262" y="542"/>
      <point x="248.5" y="569.0" type="qcurve" smooth="yes" name="inserted"/>
      <point x="235" y="596"/>
      <point x="218" y="641"/>
      <point x="218" y="653" type="qcurve" name="ih01"/>
      <point x="218" y="668"/>
      <point x="233" y="691"/>
      <point x="245.0" y="700.0" type="qcurve" smooth="yes" name="inserted"/>
      <point x="257" y="709"/>
      <point x="285" y="723"/>
      <point x="298" y="730" type="qcurve" name="av01"/>
      <point x="300" y="727"/>
      <point x="303" y="721"/>
      <point x="305" y="718" type="qcurve" name="sh04"/>
      <point x="294" y="711"/>
      <point x="269" y="698"/>
      <point x="258.0" y="691.0" type="qcurve" smooth="yes" name="inserted"/>
      <point x="247" y="684"/>
      <point x="232" y="665"/>
      <point x="232" y="652" type="qcurve" name="sh05"/>
      <point x="232" y="637"/>
      <point x="249" y="595"/>
      <point x="266" y="566" type="qcurve"/>
      <point x="353" y="415" type="line"/>
      <point x="360.5" y="401.5" name="inserted"/>
      <point x="368.0" y="373.5"/>
      <point x="368" y="359" type="qcurve" name="sh01"/>
      <point x="368" y="338"/>
      <point x="352" y="298"/>
      <point x="337.5" y="282.0" type="qcurve" smooth="yes" name="inserted"/>
      <point x="323" y="266"/>
      <point x="283" y="247"/>
      <point x="259" y="247" type="qcurve" name="iv01"/>
      <point x="243.5" y="247.0" name="inserted"/>
      <point x="214.0" y="255.5"/>
      <point x="200" y="264" type="qcurve" name="ih04"/>
      <point x="264" y="154" type="line" name="fh01"/>
      <point x="281" y="124"/>
      <point x="295" y="82"/>
      <point x="295" y="68" type="qcurve" name="ih03"/>
      <point x="295" y="51"/>
      <point x="280" y="27"/>
      <point x="268.5" y="18.0" type="qcurve" smooth="yes" name="inserted"/>
      <point x="257" y="9" name="fh02"/>
      <point x="229" y="-4"/>
      <point x="216" y="-10" type="qcurve" name="ab01"/>
      <point x="214" y="-7"/>
      <point x="211" y="-1"/>
      <point x="209" y="2" type="qcurve" name="sh06"/>
      <point x="220" y="9"/>
      <point x="245" y="22"/>
      <point x="256.0" y="29.0" type="qcurve" smooth="yes" name="inserted"/>
      <point x="267" y="36"/>
      <point x="282" y="55"/>
      <point x="282" y="68" type="qcurve" name="sh07"/>
      <point x="282" y="83"/>
      <point x="265" y="125"/>
    </contour>
  </outline>
</glyph>
<glyph name="ordfeminine" format="1">
  <advance width="585"/>
  <unicode hex="00AA"/>
  <outline>
    <contour>
      <point x="83" y="442" type="qcurve" name="dh01"/>
      <point x="83" y="470"/>
      <point x="105" y="522"/>
      <point x="124.0" y="541.0" type="qcurve" smooth="yes" name="inserted"/>
      <point x="143" y="560"/>
      <point x="194" y="582"/>
      <point x="223" y="582" type="qcurve" name="av01"/>
      <point x="268" y="582" name="fh01"/>
      <point x="338" y="532"/>
      <point x="354" y="494" type="qcurve" name="sh03"/>
      <point x="354" y="514"/>
      <point x="355" y="556"/>
      <point x="357" y="576" type="qcurve" name="sv02"/>
      <point x="364" y="576" type="line"/>
      <point x="364" y="316" type="line" name="dh02"/>
      <point x="417" y="316" type="line"/>
      <point x="417" y="306" type="line"/>
      <point x="354" y="306" type="line" name="sh01"/>
      <point x="354" y="345" type="line"/>
      <point x="354" y="356"/>
      <point x="354" y="379"/>
      <point x="354" y="390" type="qcurve" name="iv01"/>
      <point x="347" y="371"/>
      <point x="321" y="338"/>
      <point x="304.0" y="326.5" type="qcurve" smooth="yes" name="inserted"/>
      <point x="287" y="315"/>
      <point x="246" y="302"/>
      <point x="223" y="302" type="qcurve" name="sv01"/>
      <point x="194" y="302"/>
      <point x="143" y="323"/>
      <point x="124.0" y="342.5" type="qcurve" smooth="yes" name="inserted"/>
      <point x="105" y="362"/>
      <point x="83" y="412"/>
    </contour>
    <contour>
      <point x="93" y="442" type="qcurve" name="sh04"/>
      <point x="93" y="414"/>
      <point x="114" y="367"/>
      <point x="131.5" y="349.5" type="qcurve" smooth="yes" name="inserted"/>
      <point x="149" y="332" name="fh02"/>
      <point x="196" y="312"/>
      <point x="223" y="312" type="qcurve" name="sv03"/>
      <point x="250" y="312"/>
      <point x="297" y="332"/>
      <point x="315.5" y="349.5" type="qcurve" smooth="yes" name="inserted"/>
      <point x="334" y="367"/>
      <point x="354" y="414"/>
      <point x="354" y="442" type="qcurve" name="sh02"/>
      <point x="354" y="468"/>
      <point x="334" y="516"/>
      <point x="315.5" y="534.0" type="qcurve" smooth="yes" name="inserted"/>
      <point x="297" y="552"/>
      <point x="250" y="572"/>
      <point x="223" y="572" type="qcurve" name="sv04"/>
      <point x="196" y="572"/>
      <point x="149" y="552"/>
      <point x="131.5" y="534.0" type="qcurve" smooth="yes" name="inserted"/>
      <point x="114" y="516" name="fh03"/>
      <point x="93" y="468"/>
    </contour>
  </outline>
</glyph>
<glyph name="logicalnot" format="1">
  <advance width="559"/>
  <unicode hex="00AC"/>
  <outline>
    <contour>
      <point x="446" y="148" type="line" name="sh01"/>
      <point x="446" y="227" type="line"/>
      <point x="100" y="227" type="line" name="sh02"/>
      <point x="100" y="241" type="line" name="sv01"/>
      <point x="460" y="241" type="line"/>
      <point x="460" y="148" type="line" name="ah01"/>
    </contour>
  </outline>
</glyph>
<glyph name="registered" format="1">
  <advance width="801"/>
  <unicode hex="00AE"/>
  <outline>
    <contour>
      <point x="399" y="132" type="qcurve" name="sv01"/>
      <point x="449" y="132"/>
      <point x="537" y="168" name="fh01"/>
      <point x="570.0" y="200.5" type="qcurve" smooth="yes" name="inserted"/>
      <point x="603" y="233"/>
      <point x="641" y="320"/>
      <point x="641" y="371" type="qcurve" name="sh02"/>
      <point x="641" y="423"/>
      <point x="603" y="512" name="fh02"/>
      <point x="570.0" y="544.5" type="qcurve" smooth="yes" name="inserted"/>
      <point x="537" y="577"/>
      <point x="449" y="613"/>
      <point x="399" y="613" type="qcurve" name="sv03"/>
      <point x="350" y="613"/>
      <point x="263" y="577" name="fh03"/>
      <point x="230.0" y="544.5" type="qcurve" smooth="yes" name="inserted"/>
      <point x="197" y="512" name="fh04"/>
      <point x="159" y="423"/>
      <point x="159" y="371" type="qcurve" name="sh03"/>
      <point x="159" y="320"/>
      <point x="197" y="233" name="fh05"/>
      <point x="230.0" y="200.5" type="qcurve" smooth="yes" name="inserted"/>
      <point x="263" y="168" name="fh06"/>
      <point x="350" y="132"/>
    </contour>
    <contour>
      <point x="400" y="118" type="qcurve" name="av01"/>
      <point x="346" y="118"/>
      <point x="253" y="156" name="fh07"/>
      <point x="218.5" y="190.0" type="qcurve" smooth="yes" name="inserted"/>
      <point x="184" y="224"/>
      <point x="145" y="317"/>
      <point x="145" y="372" type="qcurve" name="ah01"/>
      <point x="145" y="427"/>
      <point x="184" y="521" name="fh08"/>
      <point x="218.5" y="555.0" type="qcurve" smooth="yes" name="inserted"/>
      <point x="253" y="589"/>
      <point x="346" y="627"/>
      <point x="400" y="627" type="qcurve" name="sv02"/>
      <point x="454" y="627"/>
      <point x="547" y="589"/>
      <point x="581.5" y="555.0" type="qcurve" smooth="yes" name="inserted"/>
      <point x="616" y="521" name="fh09"/>
      <point x="655" y="427"/>
      <point x="655" y="372" type="qcurve" name="sh01"/>
      <point x="655" y="317"/>
      <point x="616" y="224" name="fh10"/>
      <point x="581.5" y="190.0" type="qcurve" smooth="yes" name="inserted"/>
      <point x="547" y="156" name="fh11"/>
      <point x="454" y="118"/>
    </contour>
    <contour>
      <point x="311" y="217" type="line" name="sv04"/>
      <point x="344" y="217" type="line" name="ih01"/>
      <point x="344" y="534" type="line"/>
      <point x="311" y="534" type="line" name="sv06"/>
      <point x="311" y="541" type="line" name="sv05"/>
      <point x="410" y="541" type="line"/>
      <point x="423" y="541"/>
      <point x="456" y="532"/>
      <point x="470.5" y="521.5" type="qcurve" smooth="yes" name="inserted"/>
      <point x="485" y="511"/>
      <point x="504" y="479"/>
      <point x="504" y="457" type="qcurve" name="sh04"/>
      <point x="504" y="424"/>
      <point x="468" y="381"/>
      <point x="433" y="374" type="qcurve" name="ih02"/>
      <point x="506" y="217" type="line" name="sh05"/>
      <point x="546" y="217" type="line"/>
      <point x="546" y="210" type="line"/>
      <point x="503" y="210" type="line" name="sh07"/>
      <point x="426" y="373" type="line" name="sh06"/>
      <point x="421" y="372"/>
      <point x="409" y="371"/>
      <point x="403" y="371" type="qcurve"/>
      <point x="351" y="371" type="line" name="iv02"/>
      <point x="351" y="217" type="line" name="sh08"/>
      <point x="393" y="217" type="line"/>
      <point x="393" y="210" type="line"/>
      <point x="311" y="210" type="line" name="iv01"/>
    </contour>
    <contour>
      <point x="351" y="378" type="line" name="sh09"/>
      <point x="405" y="378" type="line"/>
      <point x="432" y="378"/>
      <point x="468" y="393"/>
      <point x="478.5" y="404.5" type="qcurve" smooth="yes" name="inserted"/>
      <point x="489" y="416"/>
      <point x="498" y="444"/>
      <point x="498" y="457" type="qcurve" name="sh10"/>
      <point x="498" y="488"/>
      <point x="445" y="534"/>
      <point x="405" y="534" type="qcurve"/>
      <point x="351" y="534" type="line" name="sv07"/>
    </contour>
  </outline>
</glyph>
<glyph name="macron" format="1">
  <advance width="399"/>
  <unicode hex="00AF"/>
  <outline>
    <contour>
      <point x="85" y="492" type="line" name="ah01"/>
      <point x="85" y="506" type="line" name="sv01"/>
      <point x="315" y="506" type="line"/>
      <point x="315" y="492" type="line" name="sh01"/>
    </contour>
  </outline>
</glyph>
<glyph name="degree" format="1">
  <advance width="282"/>
  <unicode hex="00B0"/>
  <outline>
    <contour>
      <point x="138" y="498" type="qcurve" name="sv02"/>
      <point x="164" y="498"/>
      <point x="200" y="534"/>
      <point x="200" y="560" type="qcurve" name="sh02"/>
      <point x="200" y="586"/>
      <point x="164" y="622"/>
      <point x="138" y="622" type="qcurve" name="sv03"/>
      <point x="112" y="622"/>
      <point x="75" y="586"/>
      <point x="75" y="560" type="qcurve" name="sh03"/>
      <point x="75" y="534"/>
      <point x="112" y="498"/>
    </contour>
    <contour>
      <point x="61" y="559" type="qcurve" name="ah01"/>
      <point x="61" y="592"/>
      <point x="105" y="636"/>
      <point x="138" y="636" type="qcurve" name="av01"/>
      <point x="170" y="636"/>
      <point x="214" y="592"/>
      <point x="214" y="559" type="qcurve" name="sh01"/>
      <point x="214" y="527"/>
      <point x="170" y="484"/>
      <point x="138" y="484" type="qcurve" name="sv01"/>
      <point x="105" y="484"/>
      <point x="61" y="527"/>
    </contour>
  </outline>
</glyph>
<glyph name="plusminus" format="1">
  <advance width="524"/>
  <unicode hex="00B1"/>
  <outline>
    <contour>
      <point x="259" y="211" type="line" name="sv01"/>
      <point x="259" y="385" type="line" name="ah01"/>
      <point x="86" y="385" type="line" name="sh01"/>
      <point x="86" y="399" type="line"/>
      <point x="259" y="399" type="line" name="sh02"/>
      <point x="259" y="571" type="line" name="sv02"/>
      <point x="273" y="571" type="line"/>
      <point x="273" y="399" type="line" name="sh04"/>
      <point x="446" y="399" type="line"/>
      <point x="446" y="385" type="line" name="sh05"/>
      <point x="273" y="385" type="line" name="sh03"/>
      <point x="273" y="211" type="line"/>
    </contour>
    <contour>
      <point x="446" y="136" type="line"/>
      <point x="86" y="136" type="line" name="av01"/>
      <point x="86" y="150" type="line" name="sh06"/>
      <point x="446" y="150" type="line" name="sh07"/>
    </contour>
  </outline>
</glyph>
<glyph name="paragraph" format="1">
  <advance width="525"/>
  <unicode hex="00B6"/>
  <outline>
    <contour>
      <point x="215" y="0" type="line" name="sh01"/>
      <point x="201" y="0" type="line" name="ah01"/>
      <point x="201" y="423" type="line" name="sv01"/>
      <point x="167" y="423"/>
      <point x="107" y="448"/>
      <point x="85.0" y="470.0" type="qcurve" smooth="yes" name="inserted"/>
      <point x="63" y="492"/>
      <point x="38" y="552"/>
      <point x="38" y="586" type="qcurve" name="sh02"/>
      <point x="38" y="620"/>
      <point x="63" y="680"/>
      <point x="85.0" y="702.0" type="qcurve" smooth="yes" name="inserted"/>
      <point x="107" y="724"/>
      <point x="167" y="750"/>
      <point x="201" y="750" type="qcurve"/>
      <point x="486" y="750" type="line" name="at01"/>
      <point x="486" y="736" type="line" name="sv02"/>
      <point x="378" y="736" type="line"/>
      <point x="378" y="14" type="line" name="sh03"/>
      <point x="486" y="14" type="line"/>
      <point x="486" y="0" type="line"/>
      <point x="364" y="0" type="line" name="sh04"/>
      <point x="364" y="736" type="line" name="sv03"/>
      <point x="215" y="736" type="line"/>
    </contour>
  </outline>
</glyph>
<glyph name="cedilla" format="1">
  <advance width="452"/>
  <unicode hex="00B8"/>
  <outline>
    <contour>
      <point x="193" y="0" type="line" name="ah01"/>
      <point x="207" y="0" type="line" name="sh01"/>
      <point x="207" y="-6" type="line"/>
      <point x="207" y="-32"/>
      <point x="235" y="-53"/>
      <point x="248" y="-61" type="qcurve"/>
      <point x="271" y="-76"/>
      <point x="290" y="-113"/>
      <point x="290" y="-127" type="qcurve" name="sh02"/>
      <point x="290" y="-178"/>
      <point x="239" y="-223"/>
      <point x="206" y="-223" type="qcurve" name="av01"/>
      <point x="180" y="-223"/>
      <point x="135" y="-194"/>
      <point x="125" y="-165" type="qcurve" name="sh03"/>
      <point x="129" y="-164"/>
      <point x="136" y="-162" name="mh01"/>
      <point x="140" y="-161" type="qcurve" name="sh04"/>
      <point x="146" y="-182"/>
      <point x="181" y="-209"/>
      <point x="206" y="-209" type="qcurve" name="sv01"/>
      <point x="237" y="-209"/>
      <point x="276" y="-168"/>
      <point x="276" y="-137" type="qcurve" name="sh05"/>
      <point x="276" y="-109"/>
      <point x="250" y="-79"/>
      <point x="234.5" y="-68.5" type="qcurve" smooth="yes" name="inserted"/>
      <point x="219" y="-58"/>
      <point x="193" y="-36"/>
      <point x="193" y="-16" type="qcurve"/>
    </contour>
  </outline>
</glyph>
<glyph name="onesuperior" format="1">
  <advance width="249"/>
  <unicode hex="00B9"/>
  <outline>
    <contour>
      <point x="85" y="407" type="line" name="sh01"/>
      <point x="121" y="407" type="line" name="ah01"/>
      <point x="121" y="694" type="line"/>
      <point x="70" y="694" type="line" name="sh02"/>
      <point x="70" y="700" type="line" name="at01"/>
      <point x="128" y="700" type="line"/>
      <point x="128" y="407" type="line" name="sh03"/>
      <point x="164" y="407" type="line" name="sh04"/>
      <point x="164" y="401" type="line"/>
      <point x="85" y="401" type="line" name="sv01"/>
    </contour>
  </outline>
</glyph>
<glyph name="onequarter" format="1">
  <advance width="968"/>
  <unicode hex="00BC"/>
  <outline>
    <contour>
      <point x="295" y="-19" type="line" name="ih01"/>
      <point x="365" y="171"/>
      <point x="503" y="545"/>
      <point x="573" y="735" type="qcurve" name="sh03"/>
      <point x="587" y="735" type="line" name="sh02"/>
      <point x="517" y="545"/>
      <point x="379" y="171"/>
      <point x="309" y="-19" type="qcurve" name="sh04"/>
    </contour>
    <contour>
      <point x="706" y="10" type="line" name="sv01"/>
      <point x="763" y="10" type="line"/>
      <point x="763" y="136" type="line" name="ah02"/>
      <point x="501" y="136" type="line" name="sh05"/>
      <point x="773" y="490" type="line" name="sv02"/>
      <point x="773" y="147" type="line" name="sh06"/>
      <point x="845" y="147" type="line"/>
      <point x="845" y="136" type="line"/>
      <point x="773" y="136" type="line" name="sh01"/>
      <point x="773" y="10" type="line" name="sv03"/>
      <point x="835" y="10" type="line"/>
      <point x="835" y="0" type="line"/>
      <point x="706" y="0" type="line" name="ab01"/>
    </contour>
    <contour>
      <point x="763" y="459" type="line" name="sv04"/>
      <point x="524" y="147" type="line" name="sh07"/>
      <point x="763" y="147" type="line" name="sh08"/>
    </contour>
    <contour>
      <point x="161" y="244" type="line" name="sh09"/>
      <point x="218" y="244" type="line" name="ah01"/>
      <point x="218" y="685" type="line"/>
      <point x="138" y="685" type="line" name="sh10"/>
      <point x="138" y="695" type="line" name="at01"/>
      <point x="228" y="695" type="line"/>
      <point x="228" y="244" type="line" name="sh11"/>
      <point x="285" y="244" type="line" name="sh12"/>
      <point x="285" y="234" type="line"/>
      <point x="161" y="234" type="line" name="sv05"/>
    </contour>
  </outline>
</glyph>
<glyph name="onehalf" format="1">
  <advance width="1069"/>
  <unicode hex="00BD"/>
  <outline>
    <contour>
      <point x="145" y="244" type="line" name="sh01"/>
      <point x="201" y="244" type="line" name="ah01"/>
      <point x="201" y="685" type="line"/>
      <point x="121" y="685" type="line" name="sh02"/>
      <point x="121" y="695" type="line" name="at01"/>
      <point x="211" y="695" type="line"/>
      <point x="211" y="244" type="line" name="sh03"/>
      <point x="268" y="244" type="line" name="sh04"/>
      <point x="268" y="234" type="line"/>
      <point x="145" y="234" type="line" name="sv01"/>
    </contour>
    <contour>
      <point x="616" y="10" type="qcurve" name="sh06"/>
      <point x="860" y="10" type="line" name="sv02"/>
      <point x="860" y="90" type="line" name="sh09"/>
      <point x="870" y="90" type="line" name="sh08"/>
      <point x="870" y="0" type="line" name="ab01"/>
      <point x="590" y="0" type="line" name="sh05"/>
      <point x="636" y="44"/>
      <point x="722" y="129"/>
      <point x="755.0" y="170.0" type="qcurve" smooth="yes" name="inserted"/>
      <point x="788" y="211" name="iv01"/>
      <point x="828" y="286"/>
      <point x="828" y="319" type="qcurve" name="sh10"/>
      <point x="828" y="359"/>
      <point x="805" y="411"/>
      <point x="788.0" y="426.5" type="qcurve" smooth="yes" name="inserted"/>
      <point x="771" y="442"/>
      <point x="732" y="455"/>
      <point x="714" y="455" type="qcurve" name="sv04"/>
      <point x="679" y="455"/>
      <point x="634" y="430"/>
      <point x="621.0" y="411.5" type="qcurve" smooth="yes" name="inserted"/>
      <point x="608" y="393"/>
      <point x="598" y="350"/>
      <point x="598" y="331" type="qcurve" name="sh11"/>
      <point x="598.0" y="306.0" name="inserted"/>
      <point x="612.5" y="266.0"/>
      <point x="627" y="251" type="qcurve" name="sh12"/>
      <point x="620" y="245" type="line" name="sv05"/>
      <point x="605" y="262"/>
      <point x="588" y="302"/>
      <point x="588" y="331" type="qcurve" name="ah02"/>
      <point x="588" y="360"/>
      <point x="605" y="408"/>
      <point x="620.5" y="426.0" type="qcurve" smooth="yes" name="inserted"/>
      <point x="636" y="444" name="fh01"/>
      <point x="684" y="465"/>
      <point x="714" y="465" type="qcurve" name="sv03"/>
      <point x="742" y="465"/>
      <point x="787" y="444" name="fh02"/>
      <point x="803.5" y="426.0" type="qcurve" smooth="yes" name="inserted"/>
      <point x="820" y="408"/>
      <point x="838" y="358"/>
      <point x="838" y="328" type="qcurve" name="sh07"/>
      <point x="838" y="287"/>
      <point x="796" y="206" name="sv06"/>
      <point x="763.5" y="166.0" type="qcurve" smooth="yes" name="inserted"/>
      <point x="731" y="126"/>
      <point x="653" y="48"/>
    </contour>
    <contour>
      <point x="295" y="-19" type="line" name="ih01"/>
      <point x="365" y="171"/>
      <point x="503" y="545"/>
      <point x="573" y="735" type="qcurve" name="sh14"/>
      <point x="587" y="735" type="line" name="sh13"/>
      <point x="517" y="545"/>
      <point x="379" y="171"/>
      <point x="309" y="-19" type="qcurve" name="sh15"/>
    </contour>
  </outline>
</glyph>
<glyph name="AE" format="1">
  <advance width="775"/>
  <unicode hex="00C6"/>
  <outline>
    <contour>
      <point x="712" y="546" type="line" name="sh02"/>
      <point x="712" y="686" type="line"/>
      <point x="416" y="686" type="line" name="sv01"/>
      <point x="416" y="360" type="line" name="sh04"/>
      <point x="687" y="360" type="line"/>
      <point x="687" y="346" type="line" name="ih01"/>
      <point x="416" y="346" type="line" name="sv02"/>
      <point x="416" y="14" type="line" name="sh03"/>
      <point x="726" y="14" type="line"/>
      <point x="726" y="154" type="line" name="sh05"/>
      <point x="740" y="154" type="line" name="dh02"/>
      <point x="740" y="0" type="line"/>
      <point x="402" y="0" type="line" name="dh01"/>
      <point x="402" y="316" type="line" name="sv03"/>
      <point x="255" y="316" type="line" name="ih02"/>
      <point x="223" y="240"/>
      <point x="159" y="89"/>
      <point x="127" y="14" type="qcurve" name="sh07"/>
      <point x="209" y="14" type="line" name="sv04"/>
      <point x="209" y="0" type="line" name="ab01"/>
      <point x="35" y="0" type="line"/>
      <point x="35" y="14" type="line"/>
      <point x="112" y="14" type="line" name="sh06"/>
      <point x="185" y="186"/>
      <point x="329" y="527"/>
      <point x="402" y="700" type="qcurve" name="sh09"/>
      <point x="726" y="700" type="line"/>
      <point x="726" y="546" type="line" name="sh01"/>
    </contour>
    <contour>
      <point x="402" y="330" type="line" name="sh08"/>
      <point x="402" y="666" type="line" name="sv05"/>
      <point x="370" y="580"/>
      <point x="296" y="415"/>
      <point x="261" y="330" type="qcurve" name="ih03"/>
    </contour>
  </outline>
</glyph>
<glyph name="multiply" format="1">
  <advance width="500"/>
  <unicode hex="00D7"/>
  <outline>
    <contour>
      <point x="385" y="0" type="line" name="sh02"/>
      <point x="262" y="123" type="line" name="ih02"/>
      <point x="231" y="92"/>
      <point x="171" y="31"/>
      <point x="140" y="0" type="qcurve" name="sh04"/>
      <point x="130" y="10" type="line" name="ah01"/>
      <point x="161" y="41"/>
      <point x="221" y="102"/>
      <point x="252" y="133" type="qcurve" name="ih01"/>
      <point x="131" y="254" type="line" name="sh05"/>
      <point x="141" y="264" type="line" name="sh06"/>
      <point x="262" y="143" type="line" name="ih03"/>
      <point x="293" y="174"/>
      <point x="354" y="234"/>
      <point x="385" y="265" type="qcurve" name="sh07"/>
      <point x="395" y="255" type="line" name="sh08"/>
      <point x="364" y="224"/>
      <point x="303" y="164"/>
      <point x="272" y="133" type="qcurve" name="sh03"/>
      <point x="395" y="10" type="line" name="sh01"/>
    </contour>
  </outline>
</glyph>
<glyph name="Oslash" format="1">
  <advance width="786"/>
  <unicode hex="00D8"/>
  <outline>
    <contour>
      <point x="49" y="348" type="qcurve" name="sh01"/>
      <point x="49" y="272"/>
      <point x="109" y="142" name="fh01"/>
      <point x="160" y="95" type="qcurve" name="ih02"/>
      <point x="271" y="228"/>
      <point x="490" y="489"/>
      <point x="601" y="622" type="qcurve" name="sh03"/>
      <point x="557" y="656" name="fh02"/>
      <point x="451" y="694"/>
      <point x="392" y="694" type="qcurve" name="sv01"/>
      <point x="321" y="694"/>
      <point x="196" y="639" name="fh03"/>
      <point x="149.5" y="592.0" type="qcurve" smooth="yes" name="inserted"/>
      <point x="103" y="545" name="fh04"/>
      <point x="49" y="419"/>
    </contour>
    <contour>
      <point x="389" y="6" type="qcurve" name="sv02"/>
      <point x="460" y="6"/>
      <point x="587" y="60" name="fh05"/>
      <point x="634.5" y="106.5" type="qcurve" smooth="yes" name="inserted"/>
      <point x="682" y="153" name="fh06"/>
      <point x="737" y="278"/>
      <point x="737" y="349" type="qcurve" name="sh04"/>
      <point x="737" y="429"/>
      <point x="668" y="567" name="fh07"/>
      <point x="610" y="615" type="qcurve" name="ih04"/>
      <point x="169" y="87" type="line" name="sh02"/>
      <point x="214" y="49" name="fh08"/>
      <point x="326" y="6"/>
    </contour>
    <contour>
      <point x="35" y="349" type="qcurve" name="dh01"/>
      <point x="35" y="423"/>
      <point x="91" y="554" name="fh09"/>
      <point x="139.5" y="602.5" type="qcurve" smooth="yes" name="inserted"/>
      <point x="188" y="651" name="fh10"/>
      <point x="318" y="708"/>
      <point x="392" y="708" type="qcurve" name="at01"/>
      <point x="454" y="708"/>
      <point x="565" y="668" name="fh11"/>
      <point x="611" y="633" type="qcurve" name="ih05"/>
      <point x="627" y="652"/>
      <point x="657" y="689"/>
      <point x="673" y="708" type="qcurve" name="sh05"/>
      <point x="675" y="706"/>
      <point x="680" y="702"/>
      <point x="682" y="700" type="qcurve" name="sh06"/>
      <point x="666" y="681" name="fh12"/>
      <point x="636" y="645" name="fh13"/>
      <point x="620" y="626" type="qcurve" name="ih03"/>
      <point x="680" y="576" name="fh14"/>
      <point x="751" y="433" name="fv01"/>
      <point x="751" y="349" type="qcurve" name="dh02"/>
      <point x="751" y="275"/>
      <point x="694" y="145" name="fh15"/>
      <point x="645.5" y="96.5" type="qcurve" smooth="yes" name="inserted"/>
      <point x="597" y="48" name="fh16"/>
      <point x="466" y="-8"/>
      <point x="392" y="-8" type="qcurve" name="ab01"/>
      <point x="326" y="-8"/>
      <point x="208" y="37"/>
      <point x="161" y="77" type="qcurve" name="ih06"/>
      <point x="143" y="56" name="fh17"/>
      <point x="108" y="13"/>
      <point x="90" y="-8" type="qcurve" name="sh07"/>
      <point x="88" y="-6"/>
      <point x="83" y="-2"/>
      <point x="81" y="0" type="qcurve" name="sh08"/>
      <point x="99" y="21"/>
      <point x="134" y="64"/>
      <point x="152" y="85" type="qcurve" name="ih01"/>
      <point x="98" y="134"/>
      <point x="35" y="270"/>
    </contour>
  </outline>
</glyph>
<glyph name="ae" format="1">
  <advance width="580"/>
  <unicode hex="00E6"/>
  <outline>
    <contour>
      <point x="346" y="241" type="qcurve"/>
      <point x="346" y="191" type="line" name="sh01"/>
      <point x="391" y="209"/>
      <point x="482" y="246"/>
      <point x="527" y="264" type="qcurve" name="sh02"/>
      <point x="507" y="310"/>
      <point x="426" y="367"/>
      <point x="376" y="367" type="qcurve" name="sv01"/>
      <point x="359.0" y="367.0" name="inserted"/>
      <point x="326.0" y="360.5"/>
      <point x="310" y="354" type="qcurve" name="ih03"/>
      <point x="330" y="338"/>
      <point x="346" y="283"/>
    </contour>
    <contour>
      <point x="332" y="177" type="line" name="sv02"/>
      <point x="238" y="177" type="line"/>
      <point x="222" y="177"/>
      <point x="159" y="178"/>
      <point x="127.5" y="171.5" type="qcurve" smooth="yes" name="inserted"/>
      <point x="96" y="165" name="fh01"/>
      <point x="49" y="131"/>
      <point x="49" y="97" type="qcurve" name="sh03"/>
      <point x="49" y="68"/>
      <point x="77" y="31"/>
      <point x="98.5" y="21.0" type="qcurve" smooth="yes" name="inserted"/>
      <point x="120" y="11"/>
      <point x="171" y="4"/>
      <point x="194" y="4" type="qcurve" name="sv04"/>
      <point x="219" y="4"/>
      <point x="269" y="13"/>
      <point x="288.5" y="24.5" type="qcurve" smooth="yes" name="inserted"/>
      <point x="308" y="36"/>
      <point x="332" y="75"/>
      <point x="332" y="105" type="qcurve" name="sh04"/>
    </contour>
    <contour>
      <point x="80" y="332" type="qcurve" name="sh05"/>
      <point x="77" y="335"/>
      <point x="70" y="341"/>
      <point x="67" y="344" type="qcurve" name="ih02"/>
      <point x="76" y="352"/>
      <point x="105" y="365"/>
      <point x="122.0" y="370.0" type="qcurve" smooth="yes" name="inserted"/>
      <point x="139" y="375"/>
      <point x="175" y="381"/>
      <point x="191" y="381" type="qcurve" name="at01"/>
      <point x="226.5" y="381.0" name="inserted"/>
      <point x="279.0" y="372.5"/>
      <point x="296" y="364" type="qcurve" name="ih04"/>
      <point x="314.5" y="372.5" name="inserted"/>
      <point x="354.5" y="381.0"/>
      <point x="376" y="381" type="qcurve" name="at02"/>
      <point x="434" y="381"/>
      <point x="525" y="312"/>
      <point x="545" y="257" type="qcurve" name="dh02"/>
      <point x="495" y="237"/>
      <point x="396" y="196"/>
      <point x="346" y="176" type="qcurve" name="sv03"/>
      <point x="346" y="128" type="line" name="ih01"/>
      <point x="346" y="89"/>
      <point x="328" y="38"/>
      <point x="305" y="20" type="qcurve" name="ih05"/>
      <point x="322.0" y="13.0" name="inserted"/>
      <point x="357.5" y="6.0"/>
      <point x="376" y="6" type="qcurve" name="sv05"/>
      <point x="412" y="6"/>
      <point x="476" y="32"/>
      <point x="500" y="55" type="qcurve" name="sh06"/>
      <point x="502" y="52"/>
      <point x="507" y="47"/>
      <point x="509" y="44" type="qcurve" name="ih06"/>
      <point x="483" y="20"/>
      <point x="415" y="-8"/>
      <point x="376" y="-8" type="qcurve" name="ab01"/>
      <point x="352.5" y="-8.0" name="inserted"/>
      <point x="310.5" y="1.0"/>
      <point x="292" y="10" type="qcurve" name="ih07"/>
      <point x="273.5" y="0.0" name="inserted"/>
      <point x="223.5" y="-10.0"/>
      <point x="192" y="-10" type="qcurve" name="ab02"/>
      <point x="157" y="-10"/>
      <point x="99" y="0"/>
      <point x="78.5" y="12.0" type="qcurve" smooth="yes" name="inserted"/>
      <point x="58" y="24" name="fh02"/>
      <point x="35" y="65"/>
      <point x="35" y="96" type="qcurve" name="dh01"/>
      <point x="35" y="123"/>
      <point x="61" y="159" name="fh03"/>
      <point x="82.0" y="170.5" type="qcurve" smooth="yes" name="inserted"/>
      <point x="103" y="182"/>
      <point x="157" y="191"/>
      <point x="186" y="191" type="qcurve"/>
      <point x="332" y="191" type="line" name="sh07"/>
      <point x="332" y="243" type="line"/>
      <point x="332" y="274"/>
      <point x="322" y="321"/>
      <point x="307.0" y="336.5" type="qcurve" smooth="yes" name="inserted"/>
      <point x="292" y="352"/>
      <point x="236" y="367"/>
      <point x="190" y="367" type="qcurve" name="sv06"/>
      <point x="176" y="367"/>
      <point x="144" y="361"/>
      <point x="129.0" y="356.0" type="qcurve" smooth="yes" name="inserted"/>
      <point x="114" y="351"/>
      <point x="88" y="338"/>
    </contour>
  </outline>
</glyph>
<glyph name="ccedilla" format="1">
  <advance width="387"/>
  <unicode hex="00E7"/>
  <outline>
    <contour>
      <point x="342" y="47" type="qcurve" name="sh02"/>
      <point x="352" y="37" type="line" name="sh01"/>
      <point x="350" y="36"/>
      <point x="315" y="18"/>
      <point x="294.0" y="9.0" type="qcurve" smooth="yes" name="inserted"/>
      <point x="273" y="0"/>
      <point x="239" y="-13"/>
      <point x="239" y="-10" type="qcurve" name="sh03"/>
      <point x="240" y="-32"/>
      <point x="268" y="-53"/>
      <point x="280" y="-61" type="qcurve"/>
      <point x="303" y="-76" name="fh01"/>
      <point x="322" y="-113"/>
      <point x="322" y="-127" type="qcurve" name="sh04"/>
      <point x="322" y="-178" name="fh02"/>
      <point x="271" y="-223" name="fv01"/>
      <point x="238" y="-223" type="qcurve" name="av01"/>
      <point x="229.0" y="-223.0" name="inserted"/>
      <point x="212.0" y="-220.0"/>
      <point x="204" y="-217" type="qcurve"/>
      <point x="188" y="-210"/>
      <point x="164" y="-185"/>
      <point x="157" y="-165" type="qcurve" name="sh05"/>
      <point x="172" y="-161" type="line" name="sh06"/>
      <point x="178" y="-183"/>
      <point x="214" y="-209"/>
      <point x="238" y="-209" type="qcurve" name="sv01"/>
      <point x="269" y="-209"/>
      <point x="308" y="-168"/>
      <point x="308" y="-137" type="qcurve" name="sh07"/>
      <point x="308" y="-109"/>
      <point x="282" y="-79"/>
      <point x="266.5" y="-68.5" type="qcurve" smooth="yes" name="inserted"/>
      <point x="251" y="-58"/>
      <point x="225" y="-36"/>
      <point x="225" y="-16" type="qcurve"/>
      <point x="225" y="-6" type="line" name="ih01"/>
      <point x="185" y="-5"/>
      <point x="116" y="25" name="fh03"/>
      <point x="90.5" y="51.5" type="qcurve" smooth="yes" name="inserted"/>
      <point x="65" y="78"/>
      <point x="35" y="148"/>
      <point x="35" y="188" type="qcurve" name="dh01"/>
      <point x="35" y="228"/>
      <point x="65" y="300" name="fh04"/>
      <point x="91.5" y="326.0" type="qcurve" smooth="yes" name="inserted"/>
      <point x="118" y="352" name="fh05"/>
      <point x="188" y="383"/>
      <point x="229" y="383" type="qcurve" name="at01"/>
      <point x="264" y="383"/>
      <point x="327" y="360"/>
      <point x="352" y="340" type="qcurve"/>
      <point x="352" y="252" type="line" name="dh02"/>
      <point x="338" y="252" type="line" name="sh08"/>
      <point x="338" y="332" type="line"/>
      <point x="315" y="349"/>
      <point x="260" y="369"/>
      <point x="229" y="369" type="qcurve" name="sv02"/>
      <point x="191" y="369"/>
      <point x="126" y="341" name="fh06"/>
      <point x="101.5" y="316.0" type="qcurve" smooth="yes" name="inserted"/>
      <point x="77" y="291" name="fh07"/>
      <point x="49" y="225"/>
      <point x="49" y="188" type="qcurve" name="sh09"/>
      <point x="49" y="150"/>
      <point x="77" y="85" name="fh08"/>
      <point x="101.5" y="60.5" type="qcurve" smooth="yes" name="inserted"/>
      <point x="126" y="36" name="fh09"/>
      <point x="191" y="8"/>
      <point x="229" y="8" type="qcurve" name="sv03"/>
      <point x="261" y="8"/>
      <point x="319" y="29"/>
    </contour>
  </outline>
</glyph>
<glyph name="eth" format="1">
  <advance width="459"/>
  <unicode hex="00F0"/>
  <outline>
    <contour>
      <point x="49" y="188" type="qcurve" name="sh01"/>
      <point x="49" y="150"/>
      <point x="77" y="85" name="fh01"/>
      <point x="101.5" y="60.5" type="qcurve" smooth="yes" name="inserted"/>
      <point x="126" y="36" name="fh02"/>
      <point x="191" y="8"/>
      <point x="229" y="8" type="qcurve" name="sv01"/>
      <point x="266" y="8"/>
      <point x="332" y="36" name="fh03"/>
      <point x="357.0" y="60.5" type="qcurve" smooth="yes" name="inserted"/>
      <point x="382" y="85" name="fh04"/>
      <point x="410" y="150"/>
      <point x="410" y="188" type="qcurve" name="sh02"/>
      <point x="410" y="225"/>
      <point x="382" y="291"/>
      <point x="357.0" y="316.0" type="qcurve" smooth="yes" name="inserted"/>
      <point x="332" y="341"/>
      <point x="266" y="369"/>
      <point x="229" y="369" type="qcurve" name="sv02"/>
      <point x="191" y="369"/>
      <point x="126" y="341" name="fh05"/>
      <point x="101.5" y="316.0" type="qcurve" smooth="yes" name="inserted"/>
      <point x="77" y="291" name="fh06"/>
      <point x="49" y="225"/>
    </contour>
    <contour>
      <point x="129" y="547" type="line" name="sh03"/>
      <point x="148" y="567"/>
      <point x="186" y="609"/>
      <point x="205" y="629" type="qcurve" name="ih03"/>
      <point x="183" y="652"/>
      <point x="137" y="697"/>
      <point x="111" y="717" type="qcurve" name="ih01"/>
      <point x="117" y="726" type="line" name="sh04"/>
      <point x="141.0" y="708.0" name="inserted"/>
      <point x="189.0" y="663.5"/>
      <point x="213" y="637" type="qcurve" name="ih05"/>
      <point x="230" y="657"/>
      <point x="266" y="694"/>
      <point x="283" y="714" type="qcurve" name="sv03"/>
      <point x="285" y="712"/>
      <point x="289" y="709"/>
      <point x="291" y="707" type="qcurve" name="sh05"/>
      <point x="273" y="687"/>
      <point x="238" y="649"/>
      <point x="220" y="629" type="qcurve" name="ih04"/>
      <point x="261" y="581" name="fh07"/>
      <point x="335" y="471"/>
      <point x="363.0" y="414.0" type="qcurve" smooth="yes" name="inserted"/>
      <point x="391" y="357"/>
      <point x="424" y="242"/>
      <point x="424" y="188" type="qcurve" name="dh02"/>
      <point x="424" y="147" name="fh08"/>
      <point x="393" y="77" name="fh09"/>
      <point x="367.0" y="50.5" type="qcurve" smooth="yes" name="inserted"/>
      <point x="341" y="24" name="fh10"/>
      <point x="269" y="-6"/>
      <point x="229" y="-6" type="qcurve" name="ab01"/>
      <point x="188" y="-6"/>
      <point x="118" y="24" name="fh11"/>
      <point x="91.5" y="50.5" type="qcurve" smooth="yes" name="inserted"/>
      <point x="65" y="77"/>
      <point x="35" y="147"/>
      <point x="35" y="188" type="qcurve" name="dh01"/>
      <point x="35" y="228"/>
      <point x="65" y="300" name="fh12"/>
      <point x="91.5" y="326.0" type="qcurve" smooth="yes" name="inserted"/>
      <point x="118" y="352" name="fh13"/>
      <point x="188" y="383"/>
      <point x="229" y="383" type="qcurve" name="at01"/>
      <point x="280" y="383"/>
      <point x="366" y="335" name="fv01"/>
      <point x="392" y="295" type="qcurve" name="ih02"/>
      <point x="386" y="323"/>
      <point x="359" y="396"/>
      <point x="337.0" y="438.0" type="qcurve" smooth="yes" name="inserted"/>
      <point x="315" y="480"/>
      <point x="254" y="572"/>
      <point x="212" y="620" type="qcurve" name="ih06"/>
      <point x="137" y="539" type="line" name="sv04"/>
    </contour>
  </outline>
</glyph>
<glyph name="divide" format="1">
  <advance width="501"/>
  <unicode hex="00F7"/>
  <outline>
    <contour>
      <point x="428" y="210" type="line" name="sh02"/>
      <point x="68" y="210" type="line" name="sh03"/>
      <point x="68" y="224" type="line" name="sv01"/>
      <point x="428" y="224" type="line"/>
    </contour>
    <contour>
      <point x="231" y="341" type="qcurve" name="sh04"/>
      <point x="231" y="349"/>
      <point x="243" y="361"/>
      <point x="251" y="361" type="qcurve" name="sv02"/>
      <point x="259" y="361"/>
      <point x="271" y="349"/>
      <point x="271" y="341" type="qcurve" name="sh05"/>
      <point x="271" y="333"/>
      <point x="259" y="321"/>
      <point x="251" y="321" type="qcurve" name="sv03"/>
      <point x="243" y="321"/>
      <point x="231" y="333"/>
    </contour>
    <contour>
      <point x="231" y="91" type="qcurve" name="ah01"/>
      <point x="231" y="99"/>
      <point x="243" y="111"/>
      <point x="251" y="111" type="qcurve" name="sv05"/>
      <point x="259" y="111"/>
      <point x="271" y="99"/>
      <point x="271" y="91" type="qcurve" name="sh01"/>
      <point x="271" y="83"/>
      <point x="259" y="71"/>
      <point x="251" y="71" type="qcurve" name="sv04"/>
      <point x="243" y="71"/>
      <point x="231" y="83"/>
    </contour>
  </outline>
</glyph>
<glyph name="oslash" format="1">
  <advance width="458"/>
  <unicode hex="00F8"/>
  <outline>
    <contour>
      <point x="49" y="188" type="qcurve" name="sh01"/>
      <point x="49" y="150"/>
      <point x="78" y="83" name="fh01"/>
      <point x="103" y="58" type="qcurve" name="ih01"/>
      <point x="161" y="127"/>
      <point x="276" y="266"/>
      <point x="334" y="335" type="qcurve" name="ih02"/>
      <point x="312" y="351"/>
      <point x="258" y="369"/>
      <point x="229" y="369" type="qcurve" name="sv02"/>
      <point x="191" y="369"/>
      <point x="126" y="341" name="fh02"/>
      <point x="101.5" y="316.0" type="qcurve" smooth="yes" name="inserted"/>
      <point x="77" y="291" name="fh03"/>
      <point x="49" y="225"/>
    </contour>
    <contour>
      <point x="229" y="8" type="qcurve" name="sv01"/>
      <point x="266" y="8"/>
      <point x="332" y="36" name="fh04"/>
      <point x="357.0" y="60.5" type="qcurve" smooth="yes" name="inserted"/>
      <point x="382" y="85" name="fh05"/>
      <point x="410" y="150"/>
      <point x="410" y="188" type="qcurve" name="sh02"/>
      <point x="410" y="230"/>
      <point x="374" y="302"/>
      <point x="344" y="327" type="qcurve" name="ih03"/>
      <point x="286" y="258"/>
      <point x="170" y="119"/>
      <point x="112" y="50" type="qcurve" name="ih04"/>
      <point x="137.0" y="29.0" name="inserted"/>
      <point x="195.5" y="8.0"/>
    </contour>
    <contour>
      <point x="35" y="188" type="qcurve" name="dh01"/>
      <point x="35" y="228"/>
      <point x="65" y="300" name="fh06"/>
      <point x="91.5" y="326.0" type="qcurve" smooth="yes" name="inserted"/>
      <point x="118" y="352" name="fh07"/>
      <point x="188" y="383"/>
      <point x="229" y="383" type="qcurve" name="at01"/>
      <point x="261" y="383"/>
      <point x="320" y="363"/>
      <point x="344" y="346" type="qcurve" name="ih05"/>
      <point x="352" y="355"/>
      <point x="367" y="374"/>
      <point x="375" y="383" type="qcurve" name="sh03"/>
      <point x="377" y="381"/>
      <point x="382" y="377"/>
      <point x="384" y="375" type="qcurve" name="sh04"/>
      <point x="376" y="366"/>
      <point x="361" y="347"/>
      <point x="353" y="338" type="qcurve" name="ih06"/>
      <point x="385" y="312" name="fh08"/>
      <point x="424" y="233"/>
      <point x="424" y="188" type="qcurve" name="dh02"/>
      <point x="424" y="147"/>
      <point x="393" y="77" name="fh09"/>
      <point x="367.0" y="50.5" type="qcurve" smooth="yes" name="inserted"/>
      <point x="341" y="24" name="fv02"/>
      <point x="269" y="-6"/>
      <point x="229" y="-6" type="qcurve" name="ab01"/>
      <point x="193" y="-6"/>
      <point x="129" y="18"/>
      <point x="103" y="39" type="qcurve" name="ih07"/>
      <point x="93" y="27"/>
      <point x="74" y="4"/>
      <point x="64" y="-8" type="qcurve" name="sh05"/>
      <point x="62" y="-6"/>
      <point x="57" y="-2"/>
      <point x="55" y="0" type="qcurve" name="sh06"/>
      <point x="65" y="12"/>
      <point x="84" y="35"/>
      <point x="94" y="47" type="qcurve" name="ih08"/>
      <point x="66" y="73"/>
      <point x="35" y="146"/>
    </contour>
  </outline>
</glyph>
<glyph name="thorn" format="1">
  <advance width="498"/>
  <unicode hex="00FE"/>
  <outline>
    <contour>
      <point x="16" y="-236" type="line" name="sh01"/>
      <point x="93" y="-236" type="line" name="dh01"/>
      <point x="93" y="736" type="line"/>
      <point x="16" y="736" type="line" name="sh02"/>
      <point x="16" y="750" type="line" name="at01"/>
      <point x="190" y="750" type="line"/>
      <point x="190" y="736" type="line" name="sh05"/>
      <point x="107" y="736" type="line" name="sv01"/>
      <point x="107" y="321" type="line" name="sh06"/>
      <point x="107" y="305"/>
      <point x="106" y="273"/>
      <point x="106" y="257" type="qcurve" name="iv01"/>
      <point x="127" y="312"/>
      <point x="225" y="381" name="fh01"/>
      <point x="288" y="381" type="qcurve" name="at02"/>
      <point x="328" y="381"/>
      <point x="399" y="351" name="fh02"/>
      <point x="425.5" y="324.5" type="qcurve" smooth="yes" name="inserted"/>
      <point x="452" y="298"/>
      <point x="482" y="227"/>
      <point x="482" y="187" type="qcurve" name="dh02"/>
      <point x="482" y="146"/>
      <point x="452" y="75"/>
      <point x="425.5" y="49.0" type="qcurve" smooth="yes" name="inserted"/>
      <point x="399" y="23" name="fh03"/>
      <point x="328" y="-8"/>
      <point x="288" y="-8" type="qcurve" name="ab02"/>
      <point x="257" y="-8"/>
      <point x="200" y="10"/>
      <point x="176.5" y="26.5" type="qcurve" smooth="yes" name="inserted"/>
      <point x="153" y="43"/>
      <point x="117" y="88"/>
      <point x="107" y="115" type="qcurve" name="iv02"/>
      <point x="107" y="101"/>
      <point x="108" y="75"/>
      <point x="108" y="61" type="qcurve"/>
      <point x="108" y="-236" type="line" name="sh03"/>
      <point x="190" y="-236" type="line" name="sh04"/>
      <point x="190" y="-250" type="line"/>
      <point x="16" y="-250" type="line" name="ab01"/>
    </contour>
    <contour>
      <point x="468" y="187" type="qcurve" name="sh07"/>
      <point x="468" y="224"/>
      <point x="440" y="290"/>
      <point x="415.5" y="314.5" type="qcurve" smooth="yes" name="inserted"/>
      <point x="391" y="339" name="fh04"/>
      <point x="325" y="367"/>
      <point x="288" y="367" type="qcurve" name="sv02"/>
      <point x="250" y="367"/>
      <point x="185" y="339"/>
      <point x="160.0" y="314.5" type="qcurve" smooth="yes" name="inserted"/>
      <point x="135" y="290" name="fh05"/>
      <point x="107" y="224"/>
      <point x="107" y="187" type="qcurve" name="sh08"/>
      <point x="107" y="149"/>
      <point x="135" y="84" name="fh06"/>
      <point x="160.0" y="59.0" type="qcurve" smooth="yes" name="inserted"/>
      <point x="185" y="34" name="fh07"/>
      <point x="250" y="6"/>
      <point x="288" y="6" type="qcurve" name="sv03"/>
      <point x="325" y="6"/>
      <point x="391" y="34" name="fh08"/>
      <point x="415.5" y="59.0" type="qcurve" smooth="yes" name="inserted"/>
      <point x="440" y="84"/>
      <point x="468" y="149"/>
    </contour>
  </outline>
</glyph>
<glyph name="dotlessi" format="1">
  <advance width="244"/>
  <unicode hex="0131"/>
  <outline>
    <contour>
      <point x="35" y="14" type="line" name="sh01"/>
      <point x="117" y="14" type="line" name="ah01"/>
      <point x="117" y="361" type="line"/>
      <point x="35" y="361" type="line" name="sh02"/>
      <point x="35" y="375" type="line" name="at01"/>
      <point x="131" y="375" type="line"/>
      <point x="131" y="14" type="line" name="sh03"/>
      <point x="209" y="14" type="line" name="sh04"/>
      <point x="209" y="0" type="line"/>
      <point x="35" y="0" type="line" name="ab01"/>
    </contour>
  </outline>
</glyph>
<glyph name="quoteright" format="1">
  <advance width="164"/>
  <unicode hex="2019"/>
  <outline>
    <contour>
      <point x="65" y="572" type="qcurve" name="sv01"/>
      <point x="59" y="590" type="line" name="sh01"/>
      <point x="80" y="610"/>
      <point x="99" y="669"/>
      <point x="92" y="704" type="qcurve" name="sh02"/>
      <point x="97" y="706"/>
      <point x="106" y="709"/>
      <point x="111" y="711" type="qcurve" name="ah01"/>
      <point x="119" y="671"/>
      <point x="94" y="598"/>
    </contour>
  </outline>
</glyph>
<glyph name="quotedblright" format="1">
  <advance width="248"/>
  <unicode hex="201D"/>
  <outline>
    <contour>
      <point x="50" y="572" type="qcurve" name="sv01"/>
      <point x="44" y="590" type="line" name="sh02"/>
      <point x="65" y="610"/>
      <point x="84" y="669"/>
      <point x="77" y="704" type="qcurve" name="sh03"/>
      <point x="82" y="706"/>
      <point x="91" y="709"/>
      <point x="96" y="711" type="qcurve" name="sh01"/>
      <point x="104" y="671"/>
      <point x="79" y="598"/>
    </contour>
    <contour>
      <point x="154" y="572" type="qcurve" name="sv02"/>
      <point x="148" y="590" type="line" name="sh04"/>
      <point x="169" y="610"/>
      <point x="188" y="669"/>
      <point x="181" y="704" type="qcurve" name="sh05"/>
      <point x="186" y="706"/>
      <point x="195" y="709"/>
      <point x="200" y="711" type="qcurve" name="ah01"/>
      <point x="208" y="671"/>
      <point x="183" y="598" name="fv01"/>
    </contour>
  </outline>
</glyph>
<glyph name="quotedblbase" format="1">
  <advance width="234"/>
  <unicode hex="201E"/>
  <outline>
    <contour>
      <point x="26" y="-47" type="qcurve" name="sv01"/>
      <point x="20" y="-29" type="line" name="sh02"/>
      <point x="41" y="-9"/>
      <point x="60" y="50"/>
      <point x="53" y="85" type="qcurve" name="sh03"/>
      <point x="58" y="87"/>
      <point x="67" y="90"/>
      <point x="72" y="92" type="qcurve" name="sh01"/>
      <point x="80" y="52"/>
      <point x="55" y="-21"/>
    </contour>
    <contour>
      <point x="130" y="-47" type="qcurve" name="sv02"/>
      <point x="124" y="-29" type="line" name="sh04"/>
      <point x="145" y="-9"/>
      <point x="164" y="50"/>
      <point x="157" y="85" type="qcurve" name="sh05"/>
      <point x="162" y="87"/>
      <point x="171" y="90"/>
      <point x="176" y="92" type="qcurve" name="ah01"/>
      <point x="184" y="52"/>
      <point x="159" y="-21" name="fv01"/>
    </contour>
  </outline>
</glyph>
<glyph name="bullet" format="1">
  <advance width="479"/>
  <unicode hex="2022"/>
  <outline>
    <contour>
      <point x="174" y="300" type="qcurve" name="ah01"/>
      <point x="174" y="328"/>
      <point x="212" y="366"/>
      <point x="239" y="366" type="qcurve" name="sv01"/>
      <point x="267" y="366"/>
      <point x="305" y="328"/>
      <point x="305" y="300" type="qcurve" name="sh01"/>
      <point x="305" y="273"/>
      <point x="267" y="235"/>
      <point x="239" y="235" type="qcurve" name="av01"/>
      <point x="212" y="235"/>
      <point x="174" y="273"/>
    </contour>
  </outline>
</glyph>
<glyph name="guilsinglleft" format="1">
  <advance width="392"/>
  <unicode hex="2039"/>
  <outline>
    <contour>
      <point x="288" y="77" type="line" name="sv01"/>
      <point x="117" y="239" type="line" name="ah01"/>
      <point x="160" y="280"/>
      <point x="245" y="359"/>
      <point x="288" y="400" type="qcurve" name="sv02"/>
      <point x="288" y="383" type="line" name="sh01"/>
      <point x="253" y="347" name="fh01"/>
      <point x="181" y="275"/>
      <point x="146" y="239" type="qcurve" name="sh02"/>
      <point x="181" y="202"/>
      <point x="253" y="130" name="fh02"/>
      <point x="288" y="93" type="qcurve" name="sh03"/>
    </contour>
  </outline>
</glyph>
